<svg version="1.1" id="Layer_1" xmlns="http://www.w3.org/2000/svg" xmlns:xlink="http://www.w3.org/1999/xlink" x="0px" y="0px"
	 width="100%" viewBox="0 0 1024 1024" enable-background="new 0 0 1024 1024" xml:space="preserve">
<path fill="#000000" opacity="1.000000" stroke="none" 
	d="
M206.723984,654.284790 
	C206.446411,650.850403 206.049057,647.863403 206.077209,644.880432 
	C206.157501,636.377441 206.292664,627.902710 204.325516,619.522705 
	C203.765213,617.135742 203.702423,614.505310 204.011963,612.062561 
	C205.447510,600.734619 204.771393,589.524292 203.322159,578.229919 
	C202.581253,572.455811 203.923035,566.567627 206.829727,561.327637 
	C209.338425,556.804993 210.243622,552.028198 210.122528,546.910889 
	C209.908051,537.846985 211.203888,529.014893 214.160843,520.389221 
	C216.142303,514.609131 215.625778,508.725769 214.807083,502.651184 
	C212.339905,484.345581 209.807281,465.948822 215.111557,447.656342 
	C218.176132,437.087830 223.190674,427.205139 226.485016,416.770844 
	C230.873734,402.870300 235.035172,388.933929 234.210693,373.820343 
	C233.198318,355.262543 239.501007,338.531067 250.325760,323.476471 
	C255.369232,316.462219 259.793762,308.948608 265.316406,302.345093 
	C275.361267,290.334290 289.969147,286.058411 303.870697,280.364136 
	C318.596344,274.332336 333.319824,267.898834 345.478210,257.113800 
	C349.777405,253.300232 352.685425,248.338562 355.494385,243.479706 
	C362.486176,231.385498 373.018799,223.616272 385.433167,218.141586 
	C391.131927,215.628448 395.744446,211.413452 401.291351,208.810043 
	C408.587616,205.385544 416.457703,203.906708 424.427673,202.900848 
	C429.599548,202.248138 434.313965,200.602280 438.672729,197.397797 
	C446.145050,191.904373 454.338867,188.670486 463.930573,191.653152 
	C469.132172,193.270645 473.797058,190.747238 478.292633,188.721191 
	C482.989868,186.604263 487.743652,185.812729 492.835693,185.851883 
	C511.828583,185.997955 530.864380,185.232742 549.802795,186.279587 
	C564.259644,187.078720 578.222412,185.458694 592.382568,183.265076 
	C603.528564,181.538391 614.817017,183.788727 625.420898,187.137863 
	C646.538818,193.807816 667.443726,201.241119 686.568359,212.765564 
	C696.316467,218.639755 704.148315,226.997543 713.247437,233.669617 
	C737.901733,251.747757 755.572021,275.826691 772.500183,300.696777 
	C783.756958,317.234589 794.651611,333.922272 804.043213,351.643646 
	C814.319336,371.034332 819.629089,391.538666 821.048401,413.283142 
	C821.579224,421.415009 822.733093,429.506134 823.599426,437.616211 
	C823.705566,438.609467 823.977234,439.627869 823.858093,440.596008 
	C821.910767,456.427979 825.740173,472.196564 824.793152,487.893250 
	C823.499756,509.330933 825.928284,530.343201 828.643066,551.447205 
	C829.553040,558.521667 828.326172,565.663940 828.625244,572.846008 
	C829.442139,592.465576 831.383728,612.048462 830.992981,631.719788 
	C830.753235,643.791199 829.167908,655.699890 825.618164,667.186035 
	C822.494690,677.292786 816.989868,686.714600 809.872131,694.166504 
	C796.356995,708.316223 785.378418,724.432617 772.583313,739.078979 
	C762.637817,750.463379 752.312012,761.280762 738.568481,768.731812 
	C729.356506,773.726074 721.311035,780.941406 713.261841,788.018860 
	C702.098755,797.834412 692.308228,809.297546 679.080200,816.874023 
	C670.776917,821.629822 663.626404,828.351685 655.628052,833.696838 
	C641.062744,843.430725 627.767578,855.346924 610.283020,860.188538 
	C605.919983,861.396790 601.551514,862.300964 597.101440,862.903015 
	C590.450073,863.802917 584.554932,866.217163 578.444702,869.226929 
	C569.310120,873.726501 559.774658,878.347717 549.383850,879.339050 
	C527.853210,881.393188 506.290527,883.886475 484.732391,879.157898 
	C478.032532,877.688293 472.039093,874.202698 465.204437,873.112610 
	C455.292755,871.531677 445.349030,870.911011 435.337494,870.949646 
	C416.365234,871.022766 398.040161,866.821106 379.779633,862.345642 
	C374.367828,861.019226 370.003998,857.360291 365.341431,854.502625 
	C348.726410,844.319214 330.614655,838.627808 311.459839,835.845337 
	C303.057159,834.624756 294.675262,833.260986 286.274170,832.028931 
	C272.868652,830.063110 263.452362,822.508667 257.037567,810.957397 
	C248.954224,796.401611 239.979095,782.387756 231.444214,768.107483 
	C220.192886,749.282227 212.772675,729.264038 212.746780,706.806335 
	C212.726578,689.288818 208.918579,672.080383 206.723984,654.284790 
M449.867096,290.548035 
	C455.441315,278.428162 462.576080,266.996887 466.729858,253.832718 
	C463.988892,253.895615 463.311859,255.615356 462.444794,256.891754 
	C433.676544,299.241791 404.938232,341.612183 376.210938,383.990051 
	C362.214172,404.637756 348.196808,425.271820 334.299957,445.986664 
	C330.263702,452.003082 330.748993,453.350983 336.979401,456.001526 
	C347.243378,460.367950 355.839813,466.698273 362.820099,475.600464 
	C379.385498,496.726898 379.694000,528.893433 363.081177,550.259949 
	C355.875977,559.526917 346.714264,566.127930 335.887360,570.607422 
	C330.498932,572.836914 330.306366,573.952209 333.407745,578.639099 
	C336.342041,583.073486 339.236816,587.534912 342.224823,591.932861 
	C367.785278,629.554260 393.364197,667.163208 418.934967,704.777588 
	C433.311310,725.925049 447.688660,747.071838 462.041473,768.235291 
	C462.869202,769.455688 463.358856,770.988525 465.632263,770.582397 
	C465.421692,767.042786 463.916595,763.877014 462.464478,760.848633 
	C447.652161,729.957825 432.736725,699.116333 417.801453,668.284607 
	C402.878906,637.479248 387.904968,606.698669 372.938263,575.914734 
	C371.891479,573.761658 370.736298,571.526917 372.731750,569.466797 
	C374.790100,567.341858 377.116333,567.993652 379.582611,569.187622 
	C395.456207,576.872620 411.391022,584.430969 427.289825,592.063965 
	C445.125061,600.626648 462.970947,609.167908 480.762848,617.819946 
	C508.887085,631.496521 536.978760,645.240234 565.059082,659.006714 
	C568.170654,660.532166 571.337891,661.646301 575.166992,662.267822 
	C573.542542,659.400024 571.287964,657.989807 569.127747,656.514893 
	C557.189697,648.364197 545.235657,640.236816 533.277100,632.116333 
	C494.257599,605.620117 455.233521,579.130737 416.211853,552.637756 
	C409.617279,548.160522 403.032379,543.669006 396.429077,539.204712 
	C394.273682,537.747437 393.305634,535.794556 393.809967,533.217407 
	C394.340881,530.504700 396.583832,530.896545 398.529602,530.603455 
	C406.414093,529.415710 414.372955,529.206604 422.305939,528.629761 
	C432.892395,527.860046 443.502197,527.303101 454.067963,526.434937 
	C471.078217,525.037292 488.087891,523.700623 505.121307,522.628784 
	C515.049011,522.004150 524.971924,521.289368 534.889893,520.524292 
	C551.075806,519.275574 567.248291,517.843994 583.441345,516.700684 
	C593.683289,515.977539 603.933533,515.457275 615.413757,513.350952 
	C609.837463,512.180786 605.578308,510.807770 601.236511,510.456238 
	C578.610718,508.624268 555.969543,506.969940 533.322571,505.415924 
	C515.470032,504.190887 497.620514,502.981964 479.784607,501.493927 
	C459.304047,499.785187 438.740021,499.043793 418.277466,497.169922 
	C411.356659,496.536102 404.321014,497.138611 397.478943,495.381989 
	C393.575531,494.379822 392.265442,491.034821 395.010345,488.059479 
	C396.122070,486.854492 397.565674,485.930786 398.936279,484.993195 
	C418.975342,471.285461 438.997162,457.552216 459.083313,443.913788 
	C496.231903,418.690002 533.426331,393.533661 570.574829,368.309875 
	C572.617920,366.922668 575.101318,365.894806 576.753540,362.472015 
	C572.769470,363.969147 569.592773,364.895691 566.649780,366.309113 
	C525.733276,385.960175 484.833801,405.647095 443.962524,425.392212 
	C422.701233,435.663666 401.497345,446.054108 380.285278,456.427124 
	C377.829773,457.627899 375.375763,459.031769 372.961182,456.704742 
	C370.444122,454.279083 372.148346,451.757660 373.272919,449.391022 
	C379.906586,435.431091 386.508087,421.455170 393.252625,407.548737 
	C405.668213,381.949341 418.194763,356.403778 430.636566,330.817017 
	C437.033844,317.660889 443.348083,304.464386 449.867096,290.548035 
M518.898865,305.408722 
	C529.787476,307.817566 540.323486,311.300049 550.644409,315.523041 
	C583.479309,328.958160 611.041931,349.658173 633.713196,376.726379 
	C647.304749,392.953918 658.124390,411.053894 666.258789,430.685394 
	C675.155029,452.155792 680.783997,474.506256 682.146790,497.636353 
	C683.468201,520.063416 681.945251,542.377441 676.363220,564.381165 
	C667.251587,600.298401 650.160095,631.783752 624.961548,658.779419 
	C604.879211,680.294067 581.290527,697.036560 554.165283,708.737427 
	C528.563049,719.781311 501.971527,726.083923 474.026642,726.342834 
	C470.527649,726.375305 467.025726,726.301758 463.530365,726.424561 
	C461.894073,726.482117 460.028320,726.612122 459.571960,728.710510 
	C458.747803,732.500122 465.321869,740.584167 469.235046,740.655579 
	C480.720917,740.865234 492.049866,739.422302 503.404938,737.822876 
	C526.651611,734.548523 548.764893,727.630249 569.683167,717.179382 
	C599.041809,702.511841 624.294067,682.648865 645.164001,657.084229 
	C666.346130,631.137085 681.403992,602.211487 689.670837,569.829590 
	C696.039917,544.881470 698.088867,519.570435 695.843384,493.794067 
	C693.970337,472.292633 689.472412,451.537048 681.638672,431.489288 
	C668.290649,397.329895 648.135803,367.929688 620.598450,343.531799 
	C602.667419,327.645020 583.024597,314.684967 561.097229,304.970398 
	C532.611145,292.350037 502.848633,286.081665 471.785645,285.239624 
	C466.737396,285.102783 463.875641,286.603180 461.775452,291.293945 
	C458.485046,298.642883 458.850433,299.848389 466.802826,299.627197 
	C484.172302,299.144043 501.248138,301.144958 518.898865,305.408722 
z"/>
</svg>