<svg version="1.1" id="Layer_1" xmlns="http://www.w3.org/2000/svg" xmlns:xlink="http://www.w3.org/1999/xlink" x="0px" y="0px"
	 width="100%" viewBox="0 0 1024 1024" enable-background="new 0 0 1024 1024" xml:space="preserve">
<path fill="#000000" opacity="1.000000" stroke="none" 
	d="
M637.609375,855.645752 
	C624.881653,863.596558 612.361389,870.935669 597.687683,874.040894 
	C591.946838,875.255676 586.402283,878.160156 581.225098,881.099548 
	C573.209900,885.650330 564.581909,887.163391 555.721375,886.848206 
	C520.980652,885.612427 486.213715,886.375977 451.594940,880.723572 
	C431.576965,877.455200 411.667053,873.654175 391.782104,869.816284 
	C382.962830,868.114075 374.593353,863.868652 366.717896,859.020569 
	C349.739075,848.568726 331.881073,840.186096 311.924683,837.023010 
	C305.512909,836.006836 299.194244,834.416077 292.797729,833.288269 
	C278.571106,830.779846 267.261780,823.826050 259.925110,811.261169 
	C250.108887,794.449585 238.774612,778.575867 229.581223,761.377380 
	C218.413284,740.484924 213.132874,718.436157 213.747910,694.631714 
	C214.129822,679.849670 211.499298,665.282898 207.757706,650.787292 
	C202.585846,630.750671 196.055389,610.891418 197.689728,589.510986 
	C198.584656,577.803833 199.665924,566.309814 203.440872,555.179199 
	C204.583862,551.809021 205.496811,548.373291 204.764648,544.884766 
	C202.944489,536.212280 205.125885,527.942566 207.347885,519.786743 
	C208.794891,514.475586 209.044235,509.424744 208.144363,504.040466 
	C203.773285,477.886688 205.577850,452.464417 215.895691,427.620972 
	C221.010330,415.305939 221.722427,401.678986 223.925140,388.556061 
	C228.425308,361.745911 233.803421,335.280365 245.190048,310.259766 
	C256.269745,285.913635 275.136749,271.891602 300.390625,265.386353 
	C303.492828,264.587250 306.491791,263.571198 309.133392,261.799164 
	C320.609894,254.100525 331.814941,246.133636 342.010864,236.651428 
	C355.311981,224.281342 370.546814,214.780640 387.132874,206.984100 
	C399.551727,201.146439 412.507935,198.245316 425.571503,195.148682 
	C428.734436,194.398941 431.275848,192.814987 433.869598,190.854828 
	C443.759460,183.380737 454.804047,178.621246 467.372589,178.088928 
	C471.864441,177.898682 476.346222,177.905289 480.823761,177.223587 
	C484.605774,176.647751 488.544067,176.434113 492.264343,177.420502 
	C507.752808,181.527023 523.319336,180.345566 538.924988,178.493698 
	C545.744446,177.684464 552.551697,177.409958 559.214783,179.593796 
	C562.790771,180.765823 566.406372,181.038528 570.021729,179.887054 
	C576.745239,177.745636 583.809448,177.665009 590.671326,176.373871 
	C592.855347,175.962921 594.970154,176.321899 597.112854,176.713989 
	C611.930176,179.425446 626.267761,183.609039 639.900757,190.135391 
	C658.842163,199.202927 677.954712,208.127960 694.360840,221.403885 
	C723.331665,244.847229 749.233704,271.172180 770.668457,301.979553 
	C785.792542,323.716736 798.305847,346.737061 809.622620,370.511719 
	C817.259766,386.556000 819.905518,403.818970 821.077820,421.399414 
	C822.505310,442.807007 824.304626,464.190369 825.645874,485.602844 
	C826.080261,492.536316 825.478516,499.505920 825.715820,506.496826 
	C826.130066,518.696533 827.158325,530.734802 829.604736,542.683960 
	C830.404053,546.588013 831.176758,550.544495 830.956299,554.577942 
	C830.114075,569.988953 833.411499,585.080505 834.406616,600.334534 
	C836.200989,627.839722 837.361389,655.504883 824.071533,681.065918 
	C818.096741,692.557495 811.479004,703.702271 803.620117,714.114075 
	C796.006287,724.201416 789.193359,734.889038 781.819458,745.162842 
	C771.902649,758.979736 759.892395,770.548340 744.780518,778.668579 
	C737.066528,782.813660 731.348083,789.472229 724.652771,794.898987 
	C714.084167,803.465271 703.892334,812.503235 693.191406,820.895752 
	C688.926025,824.240967 683.736694,826.468445 678.917114,829.016785 
	C664.462830,836.659729 651.133484,845.946899 637.609375,855.645752 
M457.806885,761.778320 
	C460.622406,765.943359 462.909363,770.526550 467.203613,773.603577 
	C466.729340,771.463928 465.986694,769.481750 465.098206,767.567261 
	C459.227722,754.917419 453.456635,742.219116 447.408234,729.654541 
	C432.913788,699.544678 418.284515,669.499756 403.708923,639.428955 
	C393.345428,618.047974 382.981995,596.666931 372.614685,575.287781 
	C371.623169,573.243042 370.961609,571.149231 372.854065,569.312927 
	C374.628571,567.591064 376.629639,567.719604 378.823944,568.788025 
	C383.908936,571.263916 389.108429,573.504150 394.201599,575.963928 
	C424.619659,590.654541 455.049164,605.321960 485.419159,620.111511 
	C512.796509,633.443604 540.086060,646.955811 567.459900,660.295044 
	C570.971680,662.006287 574.757568,663.154846 578.416504,664.564087 
	C576.759460,662.131592 574.719727,660.279480 572.466309,658.740356 
	C549.283264,642.906433 526.085083,627.094543 502.852753,611.333008 
	C476.040070,593.142334 449.182434,575.018005 422.358032,556.844604 
	C413.695435,550.975769 405.097443,545.011353 396.422150,539.161377 
	C394.221283,537.677307 393.295898,535.818420 393.805359,533.227356 
	C394.215454,531.141785 395.776398,530.818848 397.544464,530.675415 
	C418.017761,529.014954 438.469269,526.990540 458.969208,525.790344 
	C470.899567,525.091919 482.802399,524.013489 494.742767,523.389771 
	C514.423462,522.361694 534.041504,520.184082 553.702209,518.708191 
	C569.576721,517.516663 585.481689,516.733154 601.358643,515.570374 
	C605.327271,515.279724 609.239929,514.225281 613.590210,513.448303 
	C611.991882,512.024719 610.582886,512.251099 609.313660,511.970093 
	C597.589294,509.374298 585.572571,509.608734 573.703369,508.532104 
	C555.878906,506.915222 537.998474,505.807556 520.141357,504.520203 
	C501.623413,503.185242 483.101135,501.929840 464.592285,500.438477 
	C448.726654,499.160095 432.783539,498.745728 416.954956,497.152161 
	C410.532806,496.505585 403.986511,497.206726 397.651733,495.440704 
	C396.009186,494.982727 394.251892,495.014709 393.842316,492.942627 
	C393.437500,490.894440 393.581146,488.921295 395.452118,487.532196 
	C396.787445,486.540802 398.153900,485.589966 399.527435,484.651703 
	C420.539673,470.299164 441.528534,455.912231 462.576324,441.611969 
	C495.466217,419.266083 528.450256,397.058014 561.238953,374.564880 
	C565.157959,371.876434 569.792480,369.794434 573.454712,365.168884 
	C568.752136,364.883911 565.703186,366.889435 562.743713,368.300720 
	C530.915771,383.478485 499.183380,398.856964 467.440826,414.213531 
	C437.947540,428.481842 408.473724,442.790466 378.990479,457.079590 
	C377.004791,458.041962 375.044525,459.017212 373.045593,457.023804 
	C371.169708,455.153046 371.538513,453.156586 372.515808,451.064331 
	C375.469025,444.742035 378.360992,438.390472 381.376617,432.098114 
	C390.144958,413.802246 398.917480,395.508118 407.769348,377.252594 
	C423.957397,343.867584 440.225433,310.521362 456.410431,277.134888 
	C460.518341,268.661133 465.222778,260.438507 468.097839,250.952240 
	C465.915100,251.881149 464.939301,253.366257 463.934845,254.840073 
	C453.363647,270.350800 442.741547,285.827026 432.216370,301.368927 
	C411.246216,332.334412 390.346741,363.347717 369.381073,394.316254 
	C358.013214,411.107758 346.476257,427.785492 335.200806,444.638458 
	C329.952606,452.482758 330.161285,452.936554 338.809631,456.829742 
	C348.862976,461.355499 357.254303,467.832397 363.749390,476.787781 
	C373.613251,490.388000 377.452759,505.743713 374.857208,522.063904 
	C371.084808,545.783691 357.164581,562.012939 334.956116,571.015686 
	C331.042328,572.602234 330.121552,573.973389 332.798309,577.820435 
	C344.940521,595.271301 356.838226,612.893188 368.741638,630.509155 
	C384.082733,653.212585 399.286133,676.009155 414.659180,698.690857 
	C428.818085,719.581116 443.123047,740.372375 457.806885,761.778320 
M643.207703,659.690002 
	C645.059387,657.359619 646.952393,655.060669 648.756226,652.693848 
	C663.143311,633.817261 674.896484,613.479797 683.053101,591.121765 
	C690.781006,569.938721 695.319702,548.048279 696.505127,525.599670 
	C697.239563,511.692169 696.609314,497.757935 694.862244,483.823975 
	C691.879089,460.032471 685.257202,437.390411 674.960571,415.869781 
	C661.626770,388.001251 643.509338,363.677643 620.235168,343.141571 
	C592.420898,318.599396 560.731873,301.590881 524.831665,292.410278 
	C506.760162,287.788940 488.367645,285.505188 469.715759,285.381500 
	C465.430756,285.353088 459.212036,292.808380 459.869843,296.992371 
	C460.170532,298.904785 461.649506,299.333801 463.145752,299.469910 
	C465.296661,299.665619 467.474182,299.700897 469.635040,299.634155 
	C486.859650,299.101990 503.737640,301.580078 520.407104,305.623505 
	C533.353394,308.763794 545.762146,313.401184 557.960022,318.820831 
	C579.640747,328.453735 598.718628,341.808502 615.928223,357.941406 
	C631.788879,372.809723 644.829834,389.906219 655.504333,408.853485 
	C670.896912,436.175598 679.974915,465.545563 682.120239,496.694733 
	C684.107483,525.548950 680.980896,554.005249 671.409302,581.612122 
	C661.176697,611.125305 645.408081,637.185181 624.019958,659.843872 
	C603.318909,681.774658 578.983093,698.592163 551.163086,710.230591 
	C527.522644,720.120483 502.862946,725.611328 477.206451,726.363037 
	C472.711182,726.494751 468.206818,726.312134 463.711182,726.437012 
	C461.938477,726.486206 459.875305,726.526978 459.693573,729.145325 
	C459.348389,734.118286 465.315094,740.549561 470.271912,740.643616 
	C482.103149,740.867737 493.802643,739.503052 505.436249,737.597656 
	C537.349060,732.371033 566.903442,721.058533 593.959229,703.234314 
	C612.258667,691.178772 628.524658,676.875916 643.207703,659.690002 
z"/>
</svg>