<?xml version="1.0" standalone="no"?>
<!DOCTYPE svg PUBLIC "-//W3C//DTD SVG 20010904//EN"
 "http://www.w3.org/TR/2001/REC-SVG-20010904/DTD/svg10.dtd">
<svg version="1.0" xmlns="http://www.w3.org/2000/svg"
 width="3334.000000pt" height="3334.000000pt" viewBox="0 0 3334.000000 3334.000000"
 preserveAspectRatio="xMidYMid meet">
<metadata>
Created by potrace 1.16, written by Peter Selinger 2001-2019
</metadata>
<g transform="translate(0.000000,3334.000000) scale(0.100000,-0.100000)"
fill="#000000" stroke="none">
<path d="M0 16670 l0 -16670 16670 0 16670 0 0 16670 0 16670 -16670 0 -16670
0 0 -16670z m15296 8668 c-35 -73 -764 -1582 -1621 -3353 -857 -1771 -1573
-3255 -1592 -3298 -43 -95 -40 -130 16 -189 32 -35 45 -41 89 -46 51 -4 61 0
3439 1633 1863 901 3402 1644 3418 1653 17 8 26 10 20 4 -5 -5 -1403 -956
-3105 -2112 -1702 -1156 -3110 -2114 -3128 -2127 -65 -48 -87 -113 -61 -180
17 -46 58 -81 108 -92 25 -5 1726 -133 3779 -283 2052 -150 3732 -275 3732
-278 0 -3 -1680 -128 -3732 -278 -2053 -150 -3753 -278 -3778 -283 -72 -17
-120 -74 -120 -144 0 -42 18 -81 52 -111 12 -12 1423 -972 3133 -2134 1711
-1162 3115 -2117 3120 -2122 7 -7 3 -7 -10 -1 -11 6 -1549 749 -3418 1653
-3387 1637 -3399 1642 -3450 1637 -43 -4 -56 -10 -88 -45 -56 -59 -59 -94 -16
-189 19 -43 735 -1527 1592 -3298 1681 -3476 1691 -3495 1677 -3480 -13 15
-4647 6837 -4647 6841 0 3 54 23 120 45 654 218 1152 758 1320 1429 75 299 75
661 0 960 -168 671 -666 1211 -1320 1429 -66 22 -120 42 -120 45 0 4 4649
6846 4652 6846 1 0 -27 -60 -61 -132z m279 -1278 c259 -13 480 -34 735 -70
1844 -263 3530 -1232 4712 -2707 359 -447 694 -987 933 -1503 745 -1605 887
-3439 400 -5145 -477 -1669 -1544 -3133 -2990 -4104 -286 -193 -516 -327 -812
-475 -819 -410 -1651 -652 -2564 -745 -367 -38 -887 -52 -896 -25 -2 6 -48
103 -103 215 l-99 204 412 6 c397 6 512 13 772 45 1347 166 2591 704 3625
1570 912 763 1600 1720 2035 2829 209 534 358 1133 424 1705 35 307 44 477 44
810 0 430 -27 765 -94 1160 -118 698 -329 1334 -655 1980 -1040 2060 -3058
3485 -5339 3769 -302 38 -401 44 -812 50 l-411 6 101 212 c76 157 107 213 122
216 38 8 261 7 460 -3z"/>
</g>
</svg>
