<?xml version="1.0" standalone="no"?>
<!DOCTYPE svg PUBLIC "-//W3C//DTD SVG 20010904//EN"
 "http://www.w3.org/TR/2001/REC-SVG-20010904/DTD/svg10.dtd">
<svg version="1.0" xmlns="http://www.w3.org/2000/svg"
 width="3334.000000pt" height="3334.000000pt" viewBox="0 0 3334.000000 3334.000000"
 preserveAspectRatio="xMidYMid meet">
<metadata>
Created by potrace 1.16, written by Peter Selinger 2001-2019
</metadata>
<g transform="translate(0.000000,3334.000000) scale(0.100000,-0.100000)"
fill="#000000" stroke="none">
<path d="M0 16670 l0 -16670 16670 0 16670 0 0 16670 0 16670 -16670 0 -16670
0 0 -16670z m15347 8773 c-52 -96 -3289 -6810 -3293 -6831 -15 -76 66 -166
150 -165 34 1 653 297 3421 1635 1859 899 3396 1643 3415 1653 19 10 31 14 27
9 -4 -5 -1415 -965 -3135 -2134 -2232 -1517 -3133 -2135 -3149 -2159 -57 -84
1 -209 104 -225 21 -3 1703 -127 3738 -276 2035 -148 3723 -273 3750 -278 35
-5 -1090 -91 -3728 -284 -3297 -242 -3782 -279 -3809 -295 -44 -26 -69 -64
-75 -115 -6 -51 10 -89 54 -129 15 -14 1424 -974 3131 -2134 1707 -1159 3101
-2109 3099 -2111 -2 -2 -1534 737 -3405 1641 -2715 1313 -3410 1645 -3441
1645 -43 0 -92 -29 -125 -73 -50 -67 -152 155 1564 -3392 1825 -3773 1724
-3563 1712 -3550 -7 7 -4246 6244 -4610 6781 l-41 62 113 37 c223 72 477 213
661 367 402 336 646 786 716 1313 7 58 10 163 6 295 -4 168 -10 228 -32 330
-152 723 -663 1297 -1360 1525 -55 18 -100 35 -100 37 0 7 4637 6828 4642
6828 2 0 2 -3 0 -7z m173 -1383 c298 -12 509 -31 784 -71 2061 -294 3907
-1459 5085 -3208 659 -978 1073 -2110 1205 -3291 33 -291 40 -446 41 -820 0
-390 -8 -534 -46 -865 -189 -1645 -935 -3181 -2119 -4365 -1135 -1135 -2597
-1869 -4170 -2094 -333 -47 -715 -76 -1027 -76 l-173 0 -81 167 c-45 93 -91
191 -104 219 l-23 50 331 1 c342 0 528 10 822 44 1892 218 3616 1211 4771
2749 1003 1335 1491 2988 1373 4655 -149 2128 -1265 4063 -3044 5277 -935 638
-2031 1040 -3170 1162 -253 27 -495 38 -793 34 -160 -2 -292 -2 -292 0 0 1 47
99 104 216 l104 215 43 4 c84 7 136 7 379 -3z"/>
</g>
</svg>
