<?xml version="1.0" standalone="no"?>
<!DOCTYPE svg PUBLIC "-//W3C//DTD SVG 20010904//EN"
 "http://www.w3.org/TR/2001/REC-SVG-20010904/DTD/svg10.dtd">
<svg version="1.0" xmlns="http://www.w3.org/2000/svg"
 width="3335.000000pt" height="3334.000000pt" viewBox="0 0 3335.000000 3334.000000"
 preserveAspectRatio="xMidYMid meet">
<metadata>
Created by potrace 1.16, written by Peter Selinger 2001-2019
</metadata>
<g transform="translate(0.000000,3334.000000) scale(0.100000,-0.100000)"
fill="#000000" stroke="none">
<path d="M0 16670 l0 -16670 16675 0 16675 0 0 16670 0 16670 -16675 0 -16675
0 0 -16670z m15295 8658 c-35 -73 -775 -1604 -1645 -3403 -1309 -2706 -1583
-3279 -1587 -3320 -5 -59 18 -103 69 -136 73 -45 -140 -144 3537 1635 1872
906 3405 1645 3406 1644 1 -2 -1409 -962 -3134 -2133 -2966 -2015 -3137 -2133
-3159 -2175 -26 -51 -23 -94 8 -145 42 -68 -272 -40 3851 -343 2099 -154 3759
-280 3743 -284 -16 -4 -1703 -129 -3749 -278 -2046 -149 -3738 -276 -3759
-281 -85 -23 -132 -114 -101 -196 13 -33 31 -53 78 -87 34 -24 1441 -980 3127
-2125 1686 -1146 3070 -2087 3075 -2093 17 -17 -25 4 -3455 1662 -2597 1256
-3363 1623 -3392 1623 -76 0 -148 -71 -148 -146 0 -32 303 -666 1646 -3446
906 -1873 1649 -3410 1652 -3416 3 -7 2 -7 -5 0 -15 14 -4632 6811 -4638 6827
-3 9 27 23 103 46 192 60 432 187 607 321 94 72 261 237 345 342 217 271 355
584 417 944 23 139 23 471 0 610 -39 224 -99 408 -192 595 -237 472 -663 843
-1158 1009 -65 21 -121 41 -123 44 -5 4 4634 6837 4641 6837 2 0 -25 -60 -60
-132z m320 -1268 c694 -37 1310 -152 1959 -367 1422 -469 2690 -1383 3594
-2591 873 -1167 1372 -2525 1463 -3981 13 -213 7 -891 -11 -1071 -61 -649
-177 -1200 -371 -1765 -941 -2754 -3418 -4709 -6309 -4980 -229 -21 -712 -39
-783 -29 l-57 9 -100 207 c-55 114 -100 209 -100 211 0 3 186 7 413 10 417 5
555 15 877 58 1393 188 2728 817 3764 1775 1002 925 1701 2089 2037 3389 159
620 228 1212 216 1865 -13 711 -117 1339 -334 2014 -138 431 -373 956 -604
1351 -1065 1822 -2890 3069 -4959 3389 -381 59 -895 92 -1232 80 -103 -4 -178
-3 -178 2 0 5 46 104 103 221 l102 213 160 0 c88 0 246 -5 350 -10z"/>
</g>
</svg>
