<?xml version="1.0" standalone="no"?>
<!DOCTYPE svg PUBLIC "-//W3C//DTD SVG 20010904//EN"
 "http://www.w3.org/TR/2001/REC-SVG-20010904/DTD/svg10.dtd">
<svg version="1.0" xmlns="http://www.w3.org/2000/svg"
 width="3335.000000pt" height="3334.000000pt" viewBox="0 0 3335.000000 3334.000000"
 preserveAspectRatio="xMidYMid meet">
<metadata>
Created by potrace 1.16, written by Peter Selinger 2001-2019
</metadata>
<g transform="translate(0.000000,3334.000000) scale(0.100000,-0.100000)"
fill="#000000" stroke="none">
<path d="M0 16670 l0 -16670 16675 0 16675 0 0 16670 0 16670 -16675 0 -16675
0 0 -16670z m15745 9248 c-40 -84 -515 -1066 -1055 -2183 -541 -1116 -988
-2045 -995 -2064 -22 -61 23 -131 85 -131 15 0 972 457 2230 1065 1212 586
2204 1064 2206 1063 1 -2 -910 -623 -2025 -1381 -1398 -949 -2031 -1385 -2039
-1402 -7 -14 -12 -33 -12 -41 0 -25 29 -73 50 -84 11 -6 1110 -91 2456 -190
1340 -98 2437 -180 2439 -182 2 -2 -1093 -83 -2433 -181 -2125 -156 -2440
-181 -2462 -196 -57 -40 -62 -111 -11 -153 15 -13 932 -637 2038 -1388 1106
-751 2010 -1366 2009 -1367 -1 -2 -993 477 -2205 1062 -1211 586 -2212 1067
-2225 1071 -28 7 -81 -18 -96 -45 -5 -11 -10 -33 -10 -50 0 -20 363 -782 1060
-2223 583 -1205 1058 -2193 1056 -2195 -2 -2 -677 988 -1500 2199 l-1497 2203
81 27 c247 83 481 252 638 463 83 111 177 309 213 450 41 157 50 365 25 525
-45 282 -177 533 -387 735 -149 142 -313 242 -502 304 l-67 23 18 26 c10 15
686 1009 1501 2210 816 1200 1484 2182 1486 2182 2 0 -29 -69 -70 -152z m435
-758 c1681 -153 3156 -1179 3891 -2705 448 -931 580 -1996 373 -3025 -118
-590 -365 -1182 -707 -1695 -188 -281 -363 -494 -611 -740 -342 -340 -676
-589 -1111 -828 -648 -356 -1479 -569 -2204 -566 l-156 0 -67 138 -66 138 291
6 c405 8 681 43 1032 132 340 86 603 185 925 346 444 223 801 481 1156 834
384 382 650 755 885 1240 315 651 466 1349 446 2065 -19 668 -168 1275 -457
1865 -668 1364 -1976 2303 -3475 2495 -213 27 -507 44 -667 37 l-136 -6 32 72
c18 40 50 105 71 146 l37 74 201 -6 c111 -4 254 -12 317 -17z m-10178 -12889
c179 -28 392 -82 546 -138 l122 -45 0 -279 0 -279 -29 0 c-27 0 -29 2 -40 74
-20 121 -67 206 -174 311 -75 73 -111 100 -192 142 -201 104 -361 142 -625
150 -433 12 -734 -87 -951 -313 -182 -191 -281 -436 -324 -802 -17 -147 -20
-478 -5 -620 73 -685 397 -1071 980 -1168 114 -19 403 -21 535 -4 201 26 379
76 518 146 l67 34 0 494 0 493 -23 34 c-43 64 -166 110 -337 127 -72 7 -75 8
-78 35 l-3 27 561 0 561 0 -3 -27 c-3 -26 -7 -28 -82 -39 -95 -15 -156 -37
-197 -71 -60 -51 -59 -42 -59 -512 l0 -431 -57 -45 c-241 -191 -554 -316 -897
-356 -132 -16 -530 -6 -656 15 -359 62 -624 189 -822 394 -264 273 -381 625
-381 1137 0 261 23 431 85 624 131 413 409 688 831 825 113 37 277 71 407 85
149 17 566 6 722 -18z m16608 5 c199 -32 422 -92 613 -166 l57 -23 0 -243 0
-244 -37 0 -38 0 -27 86 c-79 249 -294 415 -643 497 -77 18 -122 21 -305 22
-288 0 -434 -28 -617 -118 -97 -47 -217 -151 -260 -224 -80 -138 -83 -311 -5
-457 40 -76 164 -194 268 -256 159 -94 283 -144 739 -295 320 -106 429 -147
570 -218 352 -175 492 -387 455 -688 -47 -392 -322 -628 -840 -719 -156 -28
-517 -39 -668 -21 -296 37 -634 151 -841 285 l-71 46 0 235 0 235 35 0 c30 0
36 -4 41 -27 19 -87 29 -115 64 -188 119 -247 400 -429 755 -490 130 -22 381
-22 528 0 289 43 507 151 629 312 63 84 89 157 95 269 15 263 -147 437 -557
599 -52 20 -248 88 -435 150 -344 114 -507 177 -625 242 -312 172 -452 362
-467 633 -23 417 305 700 895 774 154 20 543 15 692 -8z m-13570 -70 c602 -89
907 -277 985 -610 34 -142 10 -331 -57 -459 -44 -84 -172 -211 -267 -267 -139
-80 -344 -149 -543 -180 -43 -7 -78 -15 -78 -17 0 -2 164 -271 365 -597 254
-414 378 -605 406 -631 54 -49 133 -83 244 -106 50 -10 91 -19 93 -19 1 0 2
-14 2 -30 l0 -30 -306 2 -307 3 -424 685 c-233 377 -428 689 -432 693 -5 5
-176 6 -380 1 l-371 -7 0 -574 c0 -630 -2 -604 61 -657 44 -37 89 -54 187 -71
47 -8 87 -15 89 -15 2 0 3 -12 1 -27 l-3 -28 -505 0 -505 0 -3 28 c-2 15 -1
27 1 27 2 0 43 7 89 15 107 18 163 43 208 89 l35 37 3 1278 2 1278 -23 34
c-43 63 -123 100 -252 117 -56 7 -60 9 -63 35 l-3 28 818 -4 c705 -3 834 -6
933 -21z m6170 -225 l0 -250 -31 9 c-42 12 -41 11 -50 80 -11 78 -44 145 -95
197 -52 51 -103 78 -202 105 -74 21 -101 22 -779 26 l-703 4 0 -651 0 -651
573 0 c314 0 601 5 637 10 43 6 77 18 104 37 57 41 84 91 110 206 5 23 11 27
41 27 l35 0 0 -320 0 -320 -34 0 c-36 0 -38 2 -51 70 -10 47 -48 120 -77 147
-13 12 -41 30 -63 40 -37 17 -88 18 -657 21 l-618 3 0 -711 0 -711 733 4 c809
4 794 2 919 69 100 53 165 152 175 268 5 49 9 59 27 64 60 16 57 29 54 -241
l-3 -248 -2372 -3 -2373 -2 0 30 c0 32 2 33 95 45 117 16 216 75 235 143 8 26
10 431 8 1294 l-3 1257 -21 28 c-45 60 -132 98 -251 110 -61 6 -63 7 -63 34
l0 29 2350 0 2350 0 0 -249z m2026 -993 l1059 -1241 3 1119 c3 1241 6 1177
-62 1229 -43 33 -133 63 -212 71 -62 7 -64 8 -64 35 l0 29 395 0 395 0 0 -29
c0 -27 -2 -28 -64 -35 -75 -8 -164 -36 -208 -67 -16 -12 -39 -40 -49 -63 -18
-39 -19 -97 -19 -1408 l0 -1368 -54 0 -55 0 -1087 1273 c-598 699 -1091 1274
-1096 1275 -5 2 -7 -498 -6 -1160 l3 -1163 23 -38 c40 -63 113 -94 285 -122
34 -6 38 -9 35 -33 l-3 -27 -397 -3 -398 -2 0 30 c0 32 2 33 95 45 66 9 148
41 186 72 63 53 59 -39 59 1346 l0 1264 -23 34 c-43 65 -130 104 -254 116 -61
6 -63 7 -63 34 l0 29 258 0 259 0 1059 -1242z m7494 1212 c0 -27 -3 -30 -33
-30 -56 0 -189 -39 -229 -66 -20 -15 -46 -45 -58 -68 -20 -42 -20 -56 -18
-664 l3 -622 743 656 c408 360 750 666 758 680 31 47 -17 70 -168 81 l-88 6 0
28 0 29 820 0 820 0 0 -29 0 -28 -82 -6 c-121 -9 -186 -25 -221 -56 -24 -22
-29 -33 -24 -53 7 -25 903 -1299 921 -1308 10 -6 952 1264 965 1302 22 62 -55
101 -224 116 -89 7 -90 7 -93 35 l-3 27 441 0 441 0 -3 -27 c-3 -25 -7 -27
-109 -44 -58 -10 -131 -27 -162 -39 -124 -46 -115 -36 -659 -765 l-507 -680
-1 -593 c0 -651 -3 -623 61 -676 44 -37 89 -54 187 -71 47 -8 87 -15 89 -15 2
0 3 -12 1 -27 l-3 -28 -505 0 -505 0 -3 28 c-2 15 -1 27 1 27 2 0 43 7 89 15
107 18 163 43 208 89 l35 37 3 547 2 547 -511 720 c-281 396 -525 735 -542
753 -18 18 -61 47 -96 65 -128 63 -316 45 -428 -40 -89 -68 -984 -856 -981
-864 7 -18 1340 -1697 1375 -1731 64 -63 148 -94 361 -134 17 -3 22 -11 22
-34 l0 -30 -540 0 -540 0 0 29 c0 32 17 41 83 41 61 0 172 29 196 51 27 25 27
48 -2 90 -49 73 -1188 1509 -1197 1509 -4 0 -103 -83 -219 -185 l-211 -186 0
-552 c0 -521 2 -554 19 -594 12 -26 35 -52 60 -69 43 -28 156 -64 202 -64 45
0 59 -10 59 -41 l0 -29 -505 0 -505 0 0 30 c0 32 2 33 95 45 111 15 205 68
231 132 12 27 14 249 14 1283 0 1226 0 1252 -20 1290 -11 21 -33 48 -49 60
-43 30 -132 59 -207 66 -62 7 -64 8 -64 35 l0 29 505 0 505 0 0 -30z m-8450
-3949 c140 -36 130 -26 130 -136 0 -57 -4 -95 -10 -95 -5 0 -10 13 -10 29 0
62 -85 144 -186 177 -86 28 -257 26 -335 -5 -159 -62 -232 -203 -233 -451 -1
-186 35 -302 121 -388 70 -69 137 -94 269 -100 119 -5 185 5 265 39 l49 22 -2
165 -3 165 -26 20 c-15 10 -47 22 -73 24 -25 3 -46 10 -46 14 0 5 83 9 185 9
173 0 233 -10 149 -23 -70 -12 -74 -22 -74 -189 l0 -148 -61 -40 c-108 -70
-171 -85 -349 -85 -126 0 -165 4 -210 19 -208 71 -302 204 -317 446 -18 302
117 496 380 546 97 18 288 11 387 -15z m-8513 -453 c115 -255 213 -463 217
-463 5 0 102 208 218 463 l210 462 115 0 c86 0 114 -3 111 -12 -3 -7 -20 -16
-39 -19 -66 -14 -71 -31 -64 -223 3 -94 8 -283 11 -420 7 -280 7 -280 84 -292
87 -14 32 -24 -130 -24 -93 0 -170 4 -170 8 0 4 20 13 45 20 26 7 49 20 55 32
8 15 8 131 0 422 -6 221 -12 403 -13 405 -2 1 -94 -196 -204 -440 l-201 -442
-64 -3 -65 -3 -204 450 c-112 247 -205 449 -207 447 -8 -9 -19 -823 -11 -838
6 -10 30 -24 54 -30 25 -7 45 -16 45 -20 0 -4 -58 -8 -130 -8 -125 0 -168 11
-96 24 19 4 45 15 57 25 23 19 23 22 30 317 4 165 8 356 8 426 1 142 -2 150
-69 168 -72 19 -44 30 78 30 l118 0 211 -462z m2583 -6 l246 -467 52 -20 c28
-11 52 -23 52 -27 0 -5 -76 -8 -170 -8 -161 0 -220 11 -129 23 77 10 79 21 14
141 l-57 106 -294 0 c-339 0 -296 16 -360 -128 -43 -96 -39 -109 35 -119 84
-11 37 -23 -94 -23 -130 0 -173 11 -100 24 19 4 46 17 59 29 15 13 107 195
222 436 l196 415 -21 43 -21 43 63 0 62 0 245 -468z m1725 61 c191 -225 351
-409 356 -411 5 -2 9 157 9 368 l0 371 -25 24 c-13 14 -33 25 -44 25 -28 0
-52 11 -45 21 7 12 251 12 258 0 7 -10 -17 -21 -45 -21 -11 0 -31 -11 -44 -25
l-25 -24 0 -456 c0 -434 -1 -455 -18 -455 -12 0 -148 152 -378 421 l-359 420
-3 -381 c-1 -253 1 -387 8 -401 6 -11 30 -24 55 -31 25 -7 45 -16 45 -20 0 -4
-58 -8 -130 -8 -124 0 -166 10 -98 24 18 3 42 13 55 21 l23 15 0 430 c0 469 2
453 -58 466 -45 10 -52 13 -52 24 0 6 33 10 84 10 l83 0 348 -407z m2189 -45
c131 -249 247 -463 259 -476 12 -13 41 -28 64 -35 24 -6 43 -15 43 -19 0 -4
-79 -8 -175 -8 -165 0 -226 11 -134 23 77 10 79 22 17 139 l-55 103 -296 3
-297 2 -52 -104 c-60 -120 -58 -131 23 -142 92 -12 49 -24 -86 -24 -74 0 -135
4 -135 8 0 5 17 14 38 20 21 7 46 20 55 30 22 24 407 831 407 852 0 9 -7 25
-15 36 -27 36 -19 44 43 44 l58 0 238 -452z m4026 366 c0 -63 -3 -85 -12 -82
-7 3 -15 19 -19 36 -8 39 -23 58 -63 80 -27 15 -65 17 -276 17 l-245 0 -3
-212 -2 -213 213 0 c234 0 232 -1 256 63 21 54 31 28 31 -78 0 -79 -3 -105
-13 -105 -7 0 -17 15 -22 32 -16 53 -38 58 -262 58 l-203 0 0 -235 0 -235 249
0 c153 0 261 4 278 11 42 16 72 48 79 86 3 18 12 33 20 33 11 0 14 -18 14 -80
l0 -80 -430 0 c-396 0 -493 6 -394 24 19 4 44 16 55 27 18 18 19 36 19 442 0
408 -1 425 -20 442 -10 9 -34 20 -51 24 -18 4 -34 12 -37 19 -3 9 90 12 417
12 l421 0 0 -86z m1385 -371 c114 -252 211 -464 215 -471 3 -7 100 193 220
458 l213 470 113 0 c108 0 156 -13 97 -26 -96 -21 -92 -3 -82 -374 4 -173 8
-361 8 -417 1 -119 12 -138 81 -149 87 -14 32 -24 -130 -24 -159 0 -214 10
-137 24 18 3 43 13 55 22 l23 16 -7 331 c-3 183 -9 369 -13 415 l-6 83 -201
-443 -201 -443 -64 -3 -65 -3 -204 452 -205 453 -6 -150 c-4 -82 -8 -269 -10
-416 -3 -302 -3 -302 73 -314 79 -13 34 -24 -97 -24 -131 0 -175 11 -96 24 25
4 47 15 59 31 18 23 20 50 27 446 8 475 14 438 -67 460 -70 18 -41 29 80 29
l119 0 208 -457z m2635 371 c0 -63 -3 -85 -12 -82 -7 3 -15 19 -19 36 -8 39
-23 58 -63 80 -27 15 -65 17 -276 17 l-245 0 -3 -212 -2 -213 213 0 c234 0
232 -1 256 63 21 54 31 28 31 -78 0 -79 -3 -105 -13 -105 -7 0 -17 15 -22 32
-16 53 -38 58 -262 58 l-203 0 0 -235 0 -235 249 0 c153 0 261 4 278 11 42 16
72 48 79 86 3 18 12 33 20 33 11 0 14 -18 14 -80 l0 -80 -430 0 c-396 0 -493
6 -394 24 19 4 44 16 55 27 18 18 19 36 19 442 0 408 -1 425 -20 442 -10 9
-34 20 -51 24 -18 4 -34 12 -37 19 -3 9 90 12 417 12 l421 0 0 -86z m1445
-326 l350 -411 3 364 c1 200 0 374 -3 385 -4 20 -37 39 -79 46 -11 2 -21 9
-24 16 -3 9 27 12 128 12 99 0 131 -3 128 -12 -3 -7 -19 -15 -37 -19 -17 -4
-41 -15 -51 -24 -19 -17 -20 -34 -20 -477 0 -452 0 -458 -20 -458 -14 0 -127
125 -380 421 l-360 421 0 -390 c0 -436 -3 -416 74 -429 76 -12 30 -23 -99 -23
-132 0 -175 11 -95 24 22 3 49 15 60 26 19 19 20 34 20 440 l0 421 -25 24
c-13 14 -33 25 -44 25 -28 0 -52 11 -45 21 3 5 42 9 87 9 l82 -1 350 -411z
m2295 327 c0 -47 -4 -85 -9 -85 -5 0 -15 19 -23 42 -25 79 -91 102 -278 96
l-95 -3 -3 -436 c-2 -429 -2 -436 19 -463 13 -17 34 -28 60 -32 86 -14 30 -24
-131 -24 -160 0 -216 10 -134 23 20 3 45 14 55 23 18 16 19 40 19 466 l0 448
-112 0 c-62 0 -133 -5 -158 -11 -55 -12 -98 -51 -106 -96 -11 -61 -24 -34 -24
52 l0 85 460 0 460 0 0 -85z M7970 11440 l0 -710 319 0 c562 0 785 33 1026
150 276 133 410 398 351 690 -27 131 -65 201 -161 297 -70 69 -99 89 -186 132
-236 115 -497 151 -1101 151 l-248 0 0 -710z M11185 12138 c-3 -7 -4 -299 -3
-648 l3 -635 455 -3 c250 -1 486 2 523 7 129 18 185 80 221 244 6 23 11 27 41
27 l35 0 0 -320 0 -320 -35 0 c-30 0 -36 4 -41 28 -26 114 -53 165 -109 204
-22 16 -65 32 -95 38 -34 6 -240 9 -525 8 l-470 -3 0 -705 0 -705 725 0 c531
0 739 3 776 12 96 23 163 54 214 100 61 55 95 118 110 204 7 44 10 387 8 1119
l-3 1055 -23 56 c-59 146 -184 219 -406 239 -173 15 -1395 13 -1401 -2z M9913
7852 l-131 -277 275 -3 c152 -1 278 -1 279 1 4 3 -273 535 -285 549 -3 4 -65
-117 -138 -270z M13834 7848 l-130 -273 274 -3 c151 -1 277 0 279 2 6 5 -279
546 -288 546 -3 0 -64 -123 -135 -272z"/>
</g>
</svg>
