<?xml version="1.0" standalone="no"?>
<!DOCTYPE svg PUBLIC "-//W3C//DTD SVG 20010904//EN"
 "http://www.w3.org/TR/2001/REC-SVG-20010904/DTD/svg10.dtd">
<svg version="1.0" xmlns="http://www.w3.org/2000/svg"
 width="3334.000000pt" height="3334.000000pt" viewBox="0 0 3334.000000 3334.000000"
 preserveAspectRatio="xMidYMid meet">
<metadata>
Created by potrace 1.16, written by Peter Selinger 2001-2019
</metadata>
<g transform="translate(0.000000,3334.000000) scale(0.100000,-0.100000)"
fill="#000000" stroke="none">
<path d="M0 16670 l0 -16670 16670 0 16670 0 0 16670 0 16670 -16670 0 -16670
0 0 -16670z m15736 9238 c-45 -95 -527 -1091 -1069 -2214 -543 -1122 -987
-2048 -987 -2058 0 -26 28 -74 49 -86 11 -5 32 -10 48 -10 16 0 906 425 2193
1046 1191 576 2183 1056 2205 1067 22 10 36 15 30 9 -5 -6 -912 -623 -2015
-1372 -1103 -749 -2015 -1373 -2027 -1386 -54 -59 -10 -147 78 -158 24 -3
1126 -85 2449 -181 1322 -97 2405 -177 2407 -178 1 -1 -1095 -82 -2435 -180
-1340 -98 -2449 -183 -2464 -189 -54 -20 -77 -103 -40 -146 9 -11 917 -631
2017 -1378 1100 -746 2007 -1363 2015 -1371 23 -22 12 -17 -2260 1083 -1517
733 -2135 1028 -2159 1028 -40 0 -91 -50 -91 -89 0 -14 473 -1003 1051 -2198
1068 -2207 1088 -2250 1071 -2232 -14 14 -2983 4385 -2988 4399 -3 7 23 21 67
35 104 34 273 121 365 190 100 74 245 225 308 319 98 149 177 342 207 512 19
106 17 345 -4 452 -92 463 -412 836 -852 994 -49 17 -90 36 -90 41 0 8 2997
4423 3002 4423 1 0 -35 -78 -81 -172z m259 -738 c661 -36 1276 -196 1860 -484
868 -428 1574 -1093 2056 -1936 569 -995 758 -2182 528 -3319 -185 -919 -643
-1767 -1314 -2436 -769 -767 -1764 -1245 -2850 -1370 -77 -9 -248 -19 -381
-22 l-240 -6 -67 138 c-37 75 -67 139 -67 141 0 2 98 4 219 4 332 0 616 28
916 90 1774 369 3162 1769 3514 3545 106 533 111 1134 15 1665 -333 1842
-1769 3290 -3609 3640 -277 53 -716 88 -937 75 -65 -4 -118 -5 -118 -2 0 17
124 264 137 275 20 15 95 15 338 2z m-10040 -12894 c213 -30 435 -85 608 -151
l97 -38 0 -278 0 -279 -30 0 c-28 0 -30 2 -30 38 0 102 -67 239 -165 337 -207
209 -546 316 -949 302 -183 -6 -301 -25 -430 -68 -419 -140 -646 -457 -723
-1013 -24 -171 -23 -567 1 -730 81 -553 330 -900 748 -1039 372 -124 934 -85
1281 89 l67 34 0 486 c0 520 1 513 -52 560 -56 52 -165 87 -310 100 -78 7 -78
7 -78 35 l0 29 555 0 555 0 0 -28 c0 -27 -2 -28 -80 -40 -131 -19 -215 -66
-246 -139 -11 -26 -14 -119 -14 -457 l0 -425 -82 -60 c-359 -262 -768 -371
-1274 -341 -970 58 -1454 577 -1454 1556 0 886 423 1405 1235 1518 170 24 175
24 425 21 137 -2 281 -10 345 -19z m16516 14 c256 -26 494 -84 742 -180 l57
-23 0 -244 0 -244 -37 3 c-35 3 -37 5 -53 63 -30 109 -76 184 -169 276 -75 74
-101 92 -201 142 -196 97 -392 134 -654 124 -334 -12 -571 -93 -727 -248 -241
-239 -176 -582 151 -791 151 -97 266 -144 740 -303 509 -171 667 -242 834
-375 90 -71 165 -174 198 -268 19 -57 23 -87 23 -197 -1 -143 -15 -216 -64
-320 -127 -271 -444 -443 -911 -495 -159 -18 -434 -16 -575 4 -161 23 -365 77
-505 133 -142 56 -194 82 -292 145 l-78 50 0 234 0 234 38 0 37 0 17 -73 c64
-268 303 -492 631 -592 143 -43 258 -58 437 -58 562 0 938 211 992 556 21 139
-18 268 -114 373 -133 144 -339 244 -838 404 -396 127 -618 219 -778 323 -155
100 -276 246 -323 388 -21 64 -24 93 -24 214 0 169 19 235 99 354 143 210 445
351 836 390 124 12 392 13 511 1z m-13446 -84 c576 -81 882 -256 982 -563 32
-98 37 -270 10 -372 -77 -289 -346 -481 -799 -569 -76 -15 -138 -30 -138 -34
0 -14 722 -1183 747 -1210 43 -46 157 -98 256 -119 51 -10 93 -19 95 -19 1 0
2 -13 2 -30 l0 -30 -302 0 -303 0 -424 685 c-234 377 -430 689 -435 694 -6 4
-179 6 -384 3 l-373 -4 3 -582 3 -583 29 -37 c43 -57 111 -85 269 -111 33 -5
37 -9 37 -35 l0 -30 -505 0 -505 0 0 29 c0 32 0 32 100 47 65 9 145 41 182 72
61 52 58 -24 58 1339 l0 1247 -21 43 c-16 32 -35 52 -73 73 -52 30 -160 60
-215 60 -28 0 -31 3 -31 31 l0 30 808 -4 c688 -3 825 -6 927 -21z m6175 -225
l0 -250 -32 10 c-18 5 -33 9 -34 9 -1 0 -4 26 -8 58 -4 31 -18 82 -32 112 -48
105 -128 164 -272 201 -71 18 -116 19 -779 19 l-703 0 2 -642 3 -643 620 0
c616 0 620 0 660 22 75 40 126 116 141 211 6 41 8 42 45 42 l39 0 0 -320 0
-320 -39 0 c-37 0 -39 1 -45 42 -16 97 -69 176 -141 209 -38 17 -78 19 -663
19 l-622 0 2 -702 3 -703 695 -3 c754 -2 807 1 924 52 69 31 141 96 172 158
13 26 29 79 36 117 10 56 16 71 32 75 47 13 46 20 46 -244 l0 -250 -2370 0
-2370 0 0 30 c0 26 4 30 38 35 194 32 266 72 292 163 13 50 14 2473 0 2522
-21 76 -113 132 -250 152 -78 12 -80 13 -80 40 l0 28 2345 0 2345 0 0 -249z
m2030 -992 c580 -681 1058 -1239 1063 -1239 4 0 6 507 5 1128 -3 932 -5 1131
-17 1152 -40 73 -114 112 -251 134 -71 11 -75 13 -78 39 l-3 27 401 0 401 0
-3 -27 c-3 -26 -7 -28 -78 -39 -136 -21 -214 -62 -249 -131 -8 -16 -11 -400
-11 -1397 l0 -1376 -57 0 -58 0 -1090 1276 -1090 1276 -3 -1144 c-1 -628 0
-1158 3 -1176 15 -85 111 -140 293 -167 38 -6 42 -9 42 -36 l0 -29 -395 0
-395 0 0 30 c0 26 4 30 38 35 129 21 205 47 246 83 10 9 27 35 37 57 18 38 19
98 19 1283 0 1033 -2 1248 -14 1275 -31 73 -115 120 -246 139 -78 12 -80 13
-80 40 l0 28 258 -1 257 0 1055 -1240z m7500 1212 c0 -27 -2 -28 -58 -34 -80
-9 -176 -40 -217 -72 -68 -52 -65 -17 -63 -713 l3 -629 750 662 c662 584 750
666 750 691 0 25 -5 30 -44 41 -24 7 -83 15 -132 19 l-89 7 0 28 0 29 820 0
820 0 0 -29 0 -28 -82 -6 c-96 -8 -176 -27 -212 -51 -28 -18 -34 -52 -14 -89
15 -29 876 -1247 897 -1269 15 -17 48 25 490 622 260 352 478 653 484 669 14
37 5 56 -34 77 -38 19 -164 43 -231 44 -47 0 -48 1 -48 30 l0 30 435 0 435 0
0 -30 c0 -26 -4 -30 -27 -30 -58 0 -216 -40 -282 -70 -38 -18 -85 -48 -104
-68 -19 -21 -258 -336 -531 -702 l-496 -665 0 -580 c0 -542 2 -583 19 -620 36
-79 99 -110 284 -140 33 -5 37 -9 37 -35 l0 -30 -505 0 -505 0 0 30 c0 26 4
30 38 35 178 27 262 70 291 148 7 19 11 205 11 551 l0 523 -521 734 c-286 404
-532 745 -547 757 -15 13 -56 38 -92 55 -118 57 -296 45 -402 -26 -26 -18
-642 -552 -1001 -867 -11 -10 1352 -1729 1401 -1767 63 -48 138 -73 330 -109
17 -3 22 -11 22 -34 l0 -30 -535 0 -535 0 0 29 c0 32 0 32 135 46 71 8 139 35
154 63 8 15 6 28 -12 60 -12 22 -287 375 -611 785 l-589 745 -213 -186 -213
-187 -1 -563 c0 -398 3 -570 11 -585 17 -32 60 -77 89 -92 31 -16 126 -40 193
-50 44 -6 47 -8 47 -36 l0 -29 -510 0 -510 0 0 29 c0 28 3 30 48 36 145 20
235 60 274 122 l23 38 0 1250 c0 688 -3 1262 -8 1277 -21 76 -109 129 -249
151 -79 12 -83 14 -86 40 l-3 27 510 0 511 0 0 -29z m-8561 -3931 c45 -6 118
-22 162 -36 l79 -25 0 -94 c0 -96 -12 -125 -25 -59 -9 49 -82 126 -145 153
-76 33 -185 46 -273 34 -232 -33 -337 -181 -337 -478 0 -252 87 -409 257 -466
113 -38 289 -28 400 21 l43 19 0 170 c0 194 0 195 -92 207 -101 14 -41 24 138
24 174 0 223 -9 139 -24 -70 -13 -75 -27 -75 -193 l0 -148 -58 -37 c-114 -74
-265 -105 -427 -88 -173 18 -288 78 -362 188 -59 88 -75 145 -80 292 -6 146
10 229 59 321 93 176 309 255 597 219z m-8406 -477 c116 -255 214 -463 217
-463 3 0 100 208 215 463 l210 462 118 3 c100 2 117 0 117 -13 0 -10 -10 -15
-29 -15 -17 0 -42 -10 -57 -23 l-26 -23 8 -421 c10 -473 7 -457 86 -469 85
-14 29 -24 -132 -24 -160 0 -216 10 -134 23 73 12 74 17 73 231 -1 105 -4 292
-8 416 l-6 225 -40 -85 c-23 -47 -115 -248 -205 -448 l-165 -363 -65 3 -65 3
-200 442 c-110 243 -203 444 -206 447 -3 4 -10 -181 -14 -409 -8 -468 -11
-449 67 -461 79 -13 33 -24 -99 -24 -138 0 -154 6 -75 29 27 8 46 20 52 34 5
12 14 207 19 432 11 462 12 450 -59 461 -25 4 -40 12 -40 21 0 11 22 13 116
11 l117 -3 210 -462z m2578 7 c131 -250 250 -465 264 -477 14 -12 41 -25 60
-29 79 -15 25 -24 -140 -24 -110 0 -175 4 -175 10 0 6 13 10 30 10 40 0 80 20
80 39 0 9 -24 59 -53 111 l-53 95 -298 0 -299 0 -47 -102 c-56 -118 -53 -132
23 -140 92 -11 45 -23 -88 -23 -129 0 -173 10 -102 24 17 4 42 14 54 24 13 10
107 195 222 437 l199 419 -19 38 c-10 20 -19 40 -19 43 0 3 27 5 61 3 l61 -3
239 -455z m1410 423 c20 -21 180 -207 355 -413 l319 -374 3 374 3 375 -26 23
c-15 12 -39 22 -56 22 -19 0 -29 5 -29 15 0 13 21 15 130 15 109 0 130 -2 130
-15 0 -10 -10 -15 -29 -15 -15 0 -40 -9 -55 -21 l-26 -20 0 -460 0 -459 -22 1
c-18 0 -111 103 -383 422 l-360 422 -3 -380 c-3 -431 -4 -421 76 -439 76 -17
44 -26 -94 -26 -130 0 -166 10 -89 24 20 4 45 16 56 27 18 18 19 36 19 437 0
466 2 455 -68 468 -45 8 -54 13 -47 25 4 5 41 9 84 9 76 0 77 0 112 -37z
m2514 -427 c133 -252 251 -467 264 -477 12 -10 38 -21 57 -25 78 -15 23 -24
-142 -24 -114 0 -173 3 -169 10 3 6 17 10 30 10 38 0 75 18 75 36 0 9 -23 61
-52 115 l-52 99 -296 0 -295 0 -48 -95 c-26 -52 -47 -104 -47 -114 0 -20 44
-41 86 -41 13 0 24 -4 24 -10 0 -6 -52 -10 -135 -10 -74 0 -135 4 -135 8 0 4
20 13 44 20 25 6 52 22 61 34 9 13 104 207 211 433 l195 410 -20 36 c-12 20
-21 40 -21 43 0 4 28 6 62 4 l62 -3 241 -459z m4015 379 c0 -86 -13 -113 -24
-52 -6 35 -32 64 -76 88 -19 10 -87 15 -267 17 l-243 4 0 -216 0 -216 208 0
c229 0 245 4 257 60 4 17 13 30 21 30 11 0 14 -21 14 -105 0 -80 -3 -105 -13
-105 -7 0 -20 15 -28 32 -23 53 -43 58 -261 58 l-198 0 0 -235 0 -236 263 3
c255 3 263 4 294 26 21 15 36 37 43 63 17 63 30 46 30 -41 l0 -80 -430 0
c-392 0 -499 6 -391 24 26 4 47 15 60 32 20 26 21 37 21 430 0 221 -4 414 -9
427 -9 23 -43 42 -85 49 -11 2 -21 9 -24 16 -3 9 85 12 417 12 l421 0 0 -85z
m1394 -382 c116 -255 214 -463 217 -463 3 0 101 208 216 463 l210 462 116 3
c100 2 117 0 117 -13 0 -10 -10 -15 -29 -15 -17 0 -42 -10 -57 -23 l-26 -23 9
-422 c11 -473 8 -456 85 -468 85 -14 29 -24 -134 -24 -95 0 -168 4 -162 8 5 5
28 14 52 21 29 8 45 19 51 34 4 12 4 144 0 292 -4 149 -8 331 -8 404 -1 74 -5
131 -9 125 -5 -5 -98 -206 -207 -447 l-199 -438 -64 3 -65 3 -197 435 c-109
238 -202 441 -207 449 -6 10 -12 -131 -17 -403 -8 -470 -10 -450 66 -462 78
-13 34 -24 -92 -24 -80 0 -130 4 -130 10 0 6 10 10 23 10 12 0 37 9 55 20 27
17 32 26 32 57 0 21 5 211 10 422 11 435 12 426 -60 437 -25 4 -40 12 -40 21
0 11 22 13 117 11 l117 -3 210 -462z m2626 382 c0 -86 -13 -113 -24 -52 -6 35
-32 64 -76 88 -19 10 -87 15 -267 17 l-243 4 0 -216 0 -216 210 0 c196 0 211
1 230 20 11 11 22 31 26 45 3 14 12 25 20 25 11 0 14 -22 14 -105 0 -80 -3
-105 -13 -105 -7 0 -20 15 -28 32 -23 53 -43 58 -261 58 l-198 0 0 -235 0
-236 263 3 c255 3 263 4 294 26 21 15 36 37 43 63 17 63 30 46 30 -41 l0 -80
-430 0 c-391 0 -499 6 -392 24 21 3 47 15 58 27 18 20 19 43 22 418 2 218 0
411 -3 428 -6 34 -29 52 -79 62 -16 4 -31 12 -34 19 -3 9 90 12 417 12 l421 0
0 -85z m1451 -330 l354 -415 3 372 c3 419 4 411 -69 425 -81 16 -46 28 89 31
105 2 133 0 130 -10 -3 -7 -13 -14 -24 -16 -42 -7 -76 -26 -85 -49 -5 -13 -9
-224 -9 -469 0 -423 -1 -444 -18 -444 -12 0 -148 152 -378 421 l-359 420 -3
-373 c-1 -205 0 -383 3 -395 6 -24 52 -53 85 -53 11 0 20 -4 20 -10 0 -6 -50
-10 -130 -10 -125 0 -169 11 -94 23 20 3 45 14 55 23 18 16 19 39 19 445 l0
428 -26 20 c-15 12 -40 21 -55 21 -19 0 -29 5 -29 15 0 12 16 15 84 15 l84 0
353 -415z m2297 328 c2 -69 0 -83 -13 -83 -9 0 -15 9 -15 25 0 15 -14 40 -32
60 -40 43 -94 55 -244 55 l-104 0 0 -439 c0 -242 3 -447 6 -456 8 -19 55 -45
84 -45 11 0 20 -4 20 -10 0 -6 -62 -10 -165 -10 -103 0 -165 4 -165 10 0 6 9
10 20 10 33 0 79 29 85 53 3 12 4 216 3 452 l-3 430 -135 -1 c-185 -1 -212
-14 -244 -116 -3 -10 -10 -18 -16 -18 -6 0 -10 33 -10 85 l0 85 463 -2 462 -3
3 -82z M7960 11435 l0 -707 413 5 c440 5 524 12 715 62 318 84 512 251 568
491 25 106 15 287 -19 378 -93 238 -319 382 -717 452 -76 14 -180 18 -527 21
l-433 5 0 -707z M11180 11494 l0 -645 508 3 c498 3 508 3 547 25 75 40 126
116 141 211 6 41 8 42 45 42 l39 0 0 -320 0 -320 -39 0 c-37 0 -39 1 -45 42
-16 97 -69 176 -141 209 -37 17 -75 19 -547 19 l-508 0 0 -705 0 -706 738 3
c815 4 787 2 914 70 70 37 112 82 147 158 l26 55 0 1110 c0 1070 -1 1112 -19
1160 -26 66 -97 140 -170 177 -113 57 -124 58 -913 58 l-723 0 0 -646z M10018
8079 c-14 -30 -73 -154 -132 -276 -58 -123 -106 -225 -106 -228 0 -3 126 -5
279 -5 l279 0 -123 233 c-67 127 -133 254 -147 281 l-25 49 -25 -54z M13832
7854 c-73 -153 -130 -279 -128 -281 1 -2 127 -2 278 -1 l276 3 -130 245 c-71
135 -137 260 -147 278 l-17 33 -132 -277z"/>
</g>
</svg>
