<?xml version="1.0" standalone="no"?>
<!DOCTYPE svg PUBLIC "-//W3C//DTD SVG 20010904//EN"
 "http://www.w3.org/TR/2001/REC-SVG-20010904/DTD/svg10.dtd">
<svg version="1.0" xmlns="http://www.w3.org/2000/svg"
 width="3334.000000pt" height="3334.000000pt" viewBox="0 0 3334.000000 3334.000000"
 preserveAspectRatio="xMidYMid meet">
<metadata>
Created by potrace 1.16, written by Peter Selinger 2001-2019
</metadata>
<g transform="translate(0.000000,3334.000000) scale(0.100000,-0.100000)"
fill="#000000" stroke="none">
<path d="M0 16670 l0 -16670 16670 0 16670 0 0 16670 0 16670 -16670 0 -16670
0 0 -16670z m15807 9383 c-2 -5 -482 -998 -1067 -2207 -1003 -2076 -1062
-2202 -1054 -2234 11 -42 52 -75 91 -74 16 0 1013 477 2232 1066 1213 586
2206 1065 2207 1063 1 -1 -903 -616 -2008 -1367 -1106 -751 -2023 -1377 -2039
-1392 -40 -36 -40 -86 -1 -129 l29 -32 2419 -178 c1330 -98 2433 -179 2449
-180 27 -2 28 -2 5 -6 -14 -2 -1116 -84 -2449 -182 l-2424 -178 -29 -32 c-38
-43 -38 -93 0 -129 15 -15 933 -641 2039 -1392 1106 -751 2010 -1366 2009
-1367 -2 -2 -994 476 -2205 1062 -1542 745 -2213 1065 -2236 1065 -43 0 -83
-33 -91 -74 -5 -30 111 -276 1057 -2232 1200 -2485 1075 -2225 1054 -2199 -25
31 -2975 4373 -2980 4387 -4 9 17 20 65 35 440 139 784 531 877 1001 23 118
23 356 0 474 -93 470 -437 862 -877 1001 -48 15 -69 26 -65 35 7 18 2986 4402
2992 4402 2 0 2 -3 0 -7z m313 -894 c1121 -79 2197 -576 3010 -1389 653 -653
1095 -1458 1294 -2355 76 -345 108 -650 108 -1030 0 -380 -32 -685 -108 -1030
-199 -897 -642 -1705 -1294 -2355 -775 -774 -1759 -1250 -2843 -1375 -152 -17
-527 -35 -595 -27 l-43 4 -65 136 c-35 74 -64 136 -64 137 0 2 138 5 308 8
335 5 506 22 787 78 882 175 1671 597 2310 1234 812 810 1276 1862 1324 3000
64 1516 -630 2944 -1871 3848 -512 373 -1126 640 -1763 766 -282 56 -452 73
-787 78 -170 3 -308 6 -308 8 0 1 29 63 65 138 l64 136 43 3 c66 5 266 -1 428
-13z m-10176 -12884 c225 -30 412 -77 617 -152 l99 -37 0 -278 0 -278 -30 0
c-27 0 -30 3 -30 33 0 46 -26 139 -54 195 -102 202 -374 367 -709 429 -114 22
-444 24 -557 4 -285 -49 -471 -140 -631 -309 -159 -168 -252 -375 -303 -677
-53 -309 -43 -721 24 -1002 59 -248 153 -433 300 -587 116 -121 236 -198 407
-259 349 -126 922 -89 1273 82 l75 36 3 475 c2 313 -1 487 -8 512 -23 80 -122
130 -312 156 -118 17 -118 17 -118 45 l0 27 555 0 555 0 0 -29 c0 -27 -2 -29
-57 -36 -140 -17 -239 -70 -269 -142 -11 -25 -14 -123 -14 -457 l0 -425 -59
-46 c-236 -180 -509 -293 -829 -342 -131 -20 -484 -22 -622 -4 -229 29 -428
85 -581 162 -480 241 -719 700 -719 1379 0 716 272 1193 803 1410 162 66 349
109 560 130 126 12 498 4 631 -15z m16501 15 c253 -24 465 -71 698 -157 l127
-47 0 -248 0 -248 -35 0 c-32 0 -35 3 -45 43 -71 281 -300 468 -672 549 -135
29 -442 32 -584 5 -443 -82 -687 -316 -643 -621 31 -218 196 -381 537 -528 64
-28 272 -102 461 -165 379 -126 496 -170 634 -239 233 -117 360 -239 428 -409
21 -54 24 -75 23 -205 -1 -129 -4 -154 -27 -225 -90 -273 -315 -452 -681 -541
-213 -51 -508 -74 -721 -55 -333 30 -692 145 -924 295 l-71 46 2 232 3 233 35
3 35 3 17 -73 c10 -40 36 -111 59 -158 55 -111 194 -254 314 -324 230 -134
529 -194 832 -168 502 44 803 237 854 550 29 177 -43 337 -208 462 -137 103
-261 157 -748 320 -471 158 -602 212 -760 314 -269 176 -375 363 -362 644 6
141 28 211 99 318 144 215 446 353 863 393 130 12 333 13 460 1z m-13599 -70
c612 -48 984 -210 1123 -491 102 -206 88 -464 -38 -646 -102 -149 -269 -259
-508 -332 -104 -33 -278 -71 -320 -71 -19 0 -24 -4 -20 -17 2 -10 167 -281
364 -603 310 -503 367 -591 411 -626 57 -48 133 -79 245 -101 74 -15 77 -17
77 -44 l0 -29 -303 0 -304 0 -425 688 -426 687 -381 3 -381 2 0 -570 c0 -633
-2 -612 66 -668 44 -37 99 -57 202 -73 70 -12 72 -13 72 -40 l0 -29 -505 0
-505 0 0 29 c0 28 2 29 78 41 142 23 223 69 251 143 8 19 11 420 11 1273 0
1023 -2 1250 -14 1277 -30 72 -129 125 -269 142 -55 7 -57 9 -57 36 l0 29 714
0 c392 0 771 -5 842 -10z m6354 -240 l0 -250 -27 6 c-41 10 -40 9 -47 72 -13
114 -85 220 -183 270 -113 58 -86 56 -876 60 l-727 3 2 -643 3 -643 620 0 621
0 49 26 c64 32 101 85 123 176 l17 73 38 0 37 0 0 -320 0 -320 -39 0 c-38 0
-39 1 -45 43 -15 102 -86 195 -163 216 -25 7 -254 11 -650 11 l-613 0 0 -705
0 -705 709 0 c778 0 805 2 927 59 112 52 176 140 196 268 6 37 12 69 12 69 1
1 16 5 34 9 l32 7 0 -251 0 -251 -2370 0 -2370 0 0 28 c0 27 2 28 90 45 93 17
172 50 202 84 50 55 48 3 48 1324 0 911 -3 1242 -12 1271 -23 78 -123 135
-271 153 -55 7 -57 9 -57 36 l0 29 2345 0 2345 0 0 -250z m2011 -972 c573
-673 1053 -1234 1066 -1248 l23 -25 -2 1135 c-3 1059 -4 1137 -20 1167 -37 67
-134 114 -267 129 -59 6 -61 8 -61 35 l0 29 400 0 400 0 0 -29 c0 -28 -2 -29
-62 -35 -80 -9 -174 -41 -216 -72 -67 -51 -62 57 -62 -1459 l0 -1375 -58 0
-58 0 -1090 1275 -1089 1275 -3 -1142 c-1 -629 0 -1158 3 -1176 15 -81 111
-141 261 -163 72 -11 74 -12 74 -40 l0 -29 -395 0 -395 0 0 29 c0 27 2 28 73
40 146 23 236 76 257 149 14 51 14 2483 0 2534 -22 76 -126 135 -273 153 -55
7 -57 9 -57 36 l0 29 255 0 254 0 1042 -1222z m7519 1194 c0 -27 -2 -28 -81
-40 -143 -21 -241 -80 -254 -155 -3 -18 -4 -307 -3 -644 l3 -612 750 662 c579
512 751 668 753 688 4 35 -28 48 -160 62 l-108 11 0 28 0 28 820 0 820 0 0
-28 0 -28 -102 -12 c-160 -18 -218 -44 -218 -97 0 -13 21 -55 48 -94 138 -204
868 -1229 874 -1228 10 3 936 1254 955 1290 39 77 -25 114 -229 133 -77 7 -78
7 -78 35 l0 29 435 0 435 0 0 -28 c0 -28 -2 -29 -82 -41 -175 -27 -294 -80
-360 -162 -19 -24 -252 -335 -517 -690 l-481 -647 0 -573 c0 -362 4 -588 10
-611 13 -46 76 -102 139 -122 25 -9 79 -21 119 -27 70 -12 72 -13 72 -40 l0
-29 -505 0 -505 0 0 29 c0 28 2 29 78 41 142 23 223 69 251 143 7 19 11 206
11 550 l0 522 -511 720 c-281 396 -529 739 -551 762 -106 109 -303 134 -461
58 -35 -16 -211 -163 -549 -459 l-497 -435 665 -843 c367 -464 684 -862 706
-885 54 -55 156 -101 284 -126 103 -20 104 -21 104 -49 l0 -28 -535 0 -535 0
0 29 c0 28 2 29 63 35 127 14 181 28 210 57 25 26 27 30 15 58 -21 48 -1202
1541 -1216 1536 -6 -2 -104 -84 -216 -182 l-205 -178 0 -563 c-1 -629 -3 -609
68 -658 43 -29 135 -59 214 -68 55 -7 57 -9 57 -37 l0 -29 -510 0 -510 0 0 29
c0 28 2 29 73 40 184 28 258 81 272 194 3 29 5 599 3 1267 -3 1135 -4 1217
-20 1247 -37 67 -134 114 -267 129 -59 6 -61 8 -61 35 l0 29 510 0 510 0 0
-28z m-8480 -3948 c36 -8 86 -21 113 -30 l47 -16 0 -94 c0 -52 -4 -94 -8 -94
-4 0 -13 20 -20 44 -23 89 -145 163 -297 181 -64 8 -185 -10 -241 -34 -55 -25
-130 -94 -155 -144 -81 -157 -78 -471 5 -611 83 -140 239 -204 436 -178 49 7
114 22 144 33 l56 22 0 168 c0 137 -3 170 -15 183 -16 16 -76 36 -107 36 -10
0 -18 5 -18 10 0 6 68 10 185 10 173 0 233 -10 149 -23 -20 -4 -47 -16 -60
-28 -23 -22 -24 -28 -24 -169 l0 -147 -38 -25 c-116 -77 -205 -102 -367 -101
-352 0 -525 169 -525 513 0 308 135 470 424 510 77 11 231 3 316 -16z m-8486
-464 c115 -253 212 -460 216 -460 3 0 100 207 215 460 l209 460 118 0 c116 0
155 -12 80 -24 -77 -12 -75 6 -67 -448 4 -222 11 -417 16 -434 10 -33 43 -54
84 -54 14 0 25 -4 25 -10 0 -6 -64 -10 -171 -10 -111 0 -168 3 -164 10 3 6 15
10 26 10 11 0 33 7 49 15 l30 16 0 127 c0 250 -13 713 -20 705 -4 -4 -97 -205
-206 -445 l-198 -438 -65 0 -66 1 -199 442 c-110 243 -202 446 -206 450 -4 4
-10 -180 -14 -410 l-8 -417 27 -23 c14 -13 39 -23 56 -23 16 0 29 -4 29 -10 0
-6 -52 -10 -136 -10 -129 0 -168 10 -86 24 72 11 69 -6 80 460 6 231 8 425 5
433 -7 17 -56 43 -83 43 -11 0 -20 5 -20 10 0 6 46 10 118 10 l117 0 209 -460z
m2575 12 c129 -246 241 -455 250 -466 21 -24 65 -46 91 -46 11 0 20 -4 20 -10
0 -6 -65 -10 -175 -10 -110 0 -175 4 -175 10 0 6 13 10 29 10 41 0 81 17 81
33 0 8 -23 58 -51 111 l-51 96 -301 0 -302 0 -43 -93 c-23 -50 -42 -100 -42
-110 0 -20 37 -37 81 -37 16 0 29 -4 29 -10 0 -6 -52 -10 -135 -10 -83 0 -135
4 -135 10 0 6 10 10 23 10 63 0 72 15 284 460 l202 423 -20 39 -19 38 62 0 63
0 234 -448z m1738 40 l348 -408 3 375 c3 420 5 406 -70 417 -78 13 -34 24 92
24 125 0 169 -11 94 -23 -20 -3 -45 -14 -55 -23 -18 -16 -19 -40 -19 -476 l0
-459 -24 3 c-17 2 -121 116 -382 422 l-359 420 -3 -365 c-1 -200 0 -379 3
-396 6 -36 45 -63 90 -63 14 0 25 -4 25 -10 0 -6 -52 -10 -136 -10 -87 0 -133
4 -129 10 3 6 15 10 26 10 28 0 75 26 83 45 3 9 6 200 6 425 0 225 -3 416 -6
425 -8 19 -55 45 -83 45 -11 0 -23 5 -26 10 -4 6 26 10 84 10 l90 0 348 -408z
m2189 -49 c252 -480 267 -503 330 -503 13 0 24 -4 24 -10 0 -6 -65 -10 -176
-10 -114 0 -173 3 -169 10 3 6 20 10 36 10 39 0 69 16 69 38 0 9 -23 59 -51
110 l-50 92 -300 0 -300 0 -44 -92 c-25 -50 -45 -100 -45 -110 0 -21 36 -38
81 -38 16 0 29 -4 29 -10 0 -6 -52 -10 -135 -10 -83 0 -135 4 -135 10 0 6 11
10 24 10 12 0 38 10 56 23 27 18 63 87 231 440 l199 418 -20 40 -20 39 62 0
63 0 241 -457z m4014 377 c0 -82 -13 -107 -24 -47 -7 38 -37 70 -79 86 -17 7
-122 11 -268 11 l-239 0 0 -216 0 -215 209 3 c231 3 243 7 256 70 4 16 12 27
18 25 8 -2 12 -38 12 -107 0 -69 -4 -105 -12 -107 -6 -2 -14 9 -18 25 -13 63
-25 67 -256 70 l-209 3 0 -236 0 -236 264 3 c250 3 266 4 293 24 15 11 34 39
41 62 8 23 18 42 23 42 5 0 9 -36 9 -80 l0 -80 -430 0 c-280 0 -430 3 -430 10
0 6 11 10 25 10 38 0 82 26 89 52 3 13 6 204 6 424 0 391 -1 402 -21 428 -13
17 -34 28 -60 32 -107 17 -2 24 381 24 l420 0 0 -80z m1395 -381 c116 -253
212 -462 215 -464 3 -2 99 206 215 461 l210 464 117 0 c116 0 155 -12 80 -24
-78 -12 -75 9 -65 -467 l10 -422 27 -24 c15 -13 40 -23 57 -23 16 0 29 -4 29
-10 0 -6 -64 -10 -171 -10 -111 0 -168 3 -164 10 3 6 15 10 26 10 31 0 79 29
80 48 2 34 -4 412 -10 617 l-6 210 -204 -448 -205 -448 -65 3 -65 3 -200 442
c-111 243 -204 444 -207 447 -3 4 -9 -181 -13 -410 -8 -468 -10 -448 66 -460
78 -13 34 -24 -92 -24 -126 0 -170 11 -92 24 73 11 70 -6 81 458 6 230 8 424
5 433 -8 19 -55 45 -84 45 -11 0 -20 5 -20 10 0 6 46 10 118 10 l118 0 209
-461z m2625 381 c0 -82 -13 -107 -24 -47 -7 38 -37 70 -79 86 -17 7 -122 11
-268 11 l-239 0 0 -216 0 -215 209 3 c231 3 243 7 256 70 4 16 12 27 18 25 8
-2 12 -38 12 -107 0 -69 -4 -105 -12 -107 -6 -2 -14 9 -18 25 -13 63 -25 67
-256 70 l-209 3 0 -236 0 -236 264 3 c250 3 266 4 293 24 15 11 34 39 41 62 8
23 18 42 23 42 5 0 9 -36 9 -80 l0 -80 -430 0 c-280 0 -430 3 -430 10 0 6 11
10 25 10 38 0 82 26 89 52 3 13 6 204 6 424 0 391 -1 402 -21 428 -13 17 -34
28 -60 32 -107 17 -2 24 381 24 l420 0 0 -80z m1455 -331 l350 -410 3 363 c1
200 0 373 -3 385 -6 24 -51 53 -84 53 -11 0 -23 5 -26 10 -4 6 42 10 129 10
132 0 177 -11 97 -24 -26 -4 -47 -15 -60 -32 -21 -26 -21 -37 -21 -475 0 -434
-1 -449 -19 -449 -12 0 -139 141 -377 420 l-359 419 -3 -386 c-3 -433 -5 -417
70 -429 78 -13 34 -24 -92 -24 -80 0 -130 4 -130 10 0 6 13 10 29 10 15 0 40
9 55 21 l26 20 0 428 c0 406 -1 429 -19 445 -10 9 -35 20 -55 23 -65 10 -38
23 52 23 l87 0 350 -411z m2295 331 c0 -64 -3 -80 -15 -80 -9 0 -15 9 -15 24
0 13 -10 36 -22 51 -36 46 -73 55 -223 55 l-135 0 0 -443 c0 -421 1 -445 19
-461 10 -9 35 -20 55 -23 82 -13 26 -23 -129 -23 -155 0 -211 10 -129 23 20 3
45 14 55 23 18 16 19 40 19 461 l0 443 -140 0 c-153 0 -181 -7 -219 -56 -12
-15 -21 -37 -21 -50 0 -15 -6 -24 -15 -24 -12 0 -15 16 -15 80 l0 80 465 0
465 0 0 -80z M7960 11435 l0 -707 428 5 c365 4 443 8 537 25 167 30 259 58
382 118 96 46 124 66 191 132 123 122 172 245 172 436 0 359 -240 579 -730
667 -113 20 -165 23 -552 27 l-428 4 0 -707z M11180 11495 l0 -646 508 3 508
3 48 25 c64 33 102 88 124 178 l17 72 38 0 37 0 0 -320 0 -320 -39 0 c-38 0
-39 1 -45 43 -15 102 -86 195 -163 216 -24 7 -219 11 -535 11 l-498 0 0 -705
0 -706 743 4 c634 2 749 5 792 18 162 50 241 121 279 249 14 48 16 177 16
1126 0 1045 0 1073 -20 1137 -38 123 -146 208 -305 242 -58 12 -194 15 -787
15 l-718 0 0 -645z M10014 8068 c-54 -107 -234 -490 -234 -499 0 -5 117 -9
275 -9 195 0 275 3 275 11 0 12 -279 549 -286 549 -2 0 -15 -23 -30 -52z
M13921 8039 c-21 -46 -80 -169 -130 -273 -50 -104 -91 -193 -91 -197 0 -5 126
-9 280 -9 154 0 280 2 280 4 0 8 -282 540 -291 550 -5 6 -25 -25 -48 -75z"/>
</g>
</svg>
