<?xml version="1.0" standalone="no"?>
<!DOCTYPE svg PUBLIC "-//W3C//DTD SVG 20010904//EN"
 "http://www.w3.org/TR/2001/REC-SVG-20010904/DTD/svg10.dtd">
<svg version="1.0" xmlns="http://www.w3.org/2000/svg"
 width="3335.000000pt" height="3334.000000pt" viewBox="0 0 3335.000000 3334.000000"
 preserveAspectRatio="xMidYMid meet">
<metadata>
Created by potrace 1.16, written by Peter Selinger 2001-2019
</metadata>
<g transform="translate(0.000000,3334.000000) scale(0.100000,-0.100000)"
fill="#000000" stroke="none">
<path d="M0 16670 l0 -16670 16675 0 16675 0 0 16670 0 16670 -16675 0 -16675
0 0 -16670z m5375 2620 c273 -24 539 -81 768 -165 l127 -47 0 -289 0 -289 -29
0 c-27 0 -29 3 -36 56 -21 173 -126 325 -308 445 -273 179 -685 247 -1092 179
-375 -63 -634 -240 -788 -538 -125 -242 -174 -474 -184 -868 -6 -256 4 -397
42 -590 85 -425 290 -725 603 -883 384 -193 1018 -183 1470 24 l83 38 -3 518
c-3 508 -3 518 -24 546 -49 66 -183 116 -350 131 l-79 7 -3 33 -3 32 581 0
581 0 -3 -32 c-3 -32 -4 -33 -63 -40 -159 -20 -260 -78 -284 -163 -7 -26 -11
-187 -11 -472 l0 -431 -67 -50 c-294 -216 -584 -325 -970 -363 -143 -14 -443
-6 -593 16 -738 109 -1162 524 -1265 1236 -23 155 -30 412 -16 569 38 428 164
736 400 971 223 223 511 353 891 403 199 27 429 32 625 16z m17435 -14 c219
-30 478 -98 645 -168 l80 -34 3 -252 2 -252 -40 0 c-35 0 -40 3 -46 28 -48
217 -216 404 -450 502 -181 75 -330 103 -554 103 -310 0 -551 -58 -725 -174
-176 -118 -266 -281 -252 -454 22 -251 195 -430 572 -590 61 -26 281 -105 490
-175 428 -144 493 -169 637 -241 197 -99 325 -204 397 -324 54 -90 73 -157 79
-276 19 -429 -255 -727 -776 -844 -207 -47 -527 -67 -737 -46 -325 32 -652
134 -902 284 l-103 60 0 249 0 249 37 -3 c36 -3 36 -3 53 -74 52 -223 218
-417 458 -538 197 -99 394 -140 662 -139 287 1 483 43 685 146 125 64 234 166
283 267 105 213 68 429 -102 587 -147 136 -302 208 -824 382 -405 134 -502
171 -655 248 -300 149 -461 321 -518 553 -17 70 -17 249 0 320 82 344 438 566
992 620 127 12 480 4 609 -14z m-14170 -65 c330 -39 528 -90 715 -181 167 -82
260 -162 340 -295 103 -172 112 -429 20 -620 -125 -259 -405 -415 -898 -500
-21 -3 -37 -10 -35 -14 2 -5 170 -280 373 -612 223 -363 387 -620 413 -646 23
-24 70 -57 104 -73 53 -25 93 -36 236 -66 17 -3 22 -11 22 -34 l0 -30 -317 0
-318 1 -444 719 -444 720 -296 0 c-163 0 -340 -3 -393 -7 l-98 -6 0 -581 c0
-362 4 -595 10 -618 20 -71 126 -137 245 -153 103 -13 105 -14 105 -46 l0 -29
-530 0 -530 0 0 30 c0 26 4 30 38 35 202 31 285 77 311 172 15 52 15 2563 1
2615 -23 83 -104 137 -234 158 -122 20 -116 17 -116 51 l0 31 813 -5 c512 -3
847 -9 907 -16z m6510 -242 l0 -261 -32 7 c-46 10 -45 8 -51 74 -3 33 -16 84
-30 114 -50 109 -128 169 -274 209 -76 22 -94 22 -810 26 l-733 3 0 -676 0
-676 638 3 637 3 50 23 c27 12 58 30 69 40 27 24 74 127 82 179 6 42 7 43 45
43 l39 0 0 -330 0 -330 -39 0 c-38 0 -39 1 -45 43 -15 102 -93 204 -173 226
-25 7 -255 11 -670 11 l-633 0 0 -736 0 -735 758 3 c743 4 758 4 835 26 146
40 225 100 274 209 14 30 27 81 30 114 6 66 5 64 51 74 l32 7 0 -261 0 -261
-2465 0 -2465 0 0 29 c0 32 0 32 99 47 62 9 146 39 182 64 16 12 38 39 49 60
20 38 20 64 20 1346 l0 1307 -25 43 c-31 53 -117 99 -215 115 -116 19 -110 17
-110 49 l0 30 2440 0 2440 0 0 -261z m2105 -1031 l1100 -1291 3 1172 c2 1290
6 1214 -60 1265 -41 30 -127 62 -195 71 -90 12 -93 13 -93 45 l0 30 410 0 410
0 0 -30 c0 -32 -2 -33 -95 -45 -112 -15 -213 -74 -241 -142 -12 -27 -14 -282
-14 -1453 l0 -1420 -59 0 -58 0 -1134 1327 -1134 1327 -3 -1179 c-1 -649 0
-1199 3 -1223 12 -82 101 -150 228 -172 28 -5 69 -12 90 -15 33 -5 37 -9 37
-35 l0 -30 -415 0 -415 0 0 30 c0 26 4 30 38 35 202 31 285 77 311 172 15 52
15 2563 1 2615 -23 83 -104 137 -234 158 -122 20 -116 17 -116 50 l0 30 268
-1 267 0 1100 -1291z m7795 1262 c0 -32 -2 -33 -90 -45 -133 -17 -242 -84
-255 -157 -3 -18 -4 -320 -3 -671 l3 -637 760 670 c418 369 770 682 783 696
50 56 10 88 -125 99 -130 11 -133 12 -133 45 l0 30 855 0 855 0 0 -30 c0 -33
9 -30 -153 -49 -142 -17 -199 -52 -183 -114 7 -28 944 -1352 956 -1352 12 0
989 1322 1001 1354 5 13 7 32 3 43 -9 30 -83 58 -181 69 -162 19 -153 16 -153
49 l0 30 455 0 455 0 0 -30 c0 -32 -2 -33 -90 -45 -135 -18 -269 -69 -332
-126 -20 -19 -271 -349 -557 -733 l-521 -700 0 -594 c0 -425 3 -606 12 -634
22 -73 123 -137 243 -153 103 -13 105 -14 105 -46 l0 -29 -530 0 -530 0 0 29
c0 32 2 33 105 46 120 16 221 80 243 153 9 28 12 194 12 573 l-1 534 -539 760
c-297 418 -556 775 -577 794 -80 71 -210 106 -333 90 -128 -17 -164 -44 -715
-527 -327 -286 -503 -447 -498 -454 23 -38 1374 -1741 1412 -1781 72 -75 168
-113 389 -153 17 -3 22 -11 22 -34 l0 -30 -560 0 -560 0 0 29 c0 28 3 30 48
36 221 27 272 49 258 112 -4 16 -279 373 -626 812 -340 431 -623 788 -628 793
-7 7 -89 -59 -231 -183 l-221 -194 2 -596 3 -596 27 -36 c37 -47 115 -83 223
-102 48 -8 89 -15 91 -15 2 0 4 -13 4 -30 l0 -30 -525 0 -525 0 0 30 c0 17 2
30 4 30 2 0 41 7 88 15 137 24 204 59 238 125 20 38 20 64 20 1347 l0 1308
-23 40 c-28 50 -123 101 -217 116 -115 19 -110 17 -110 49 l0 30 525 0 525 0
0 -30z m-8810 -4106 c36 -8 86 -21 113 -30 l47 -16 0 -99 c0 -101 -12 -131
-24 -58 -5 30 -18 52 -54 88 -145 145 -477 141 -613 -6 -85 -93 -126 -245
-115 -433 15 -282 128 -428 356 -460 107 -15 265 6 342 46 l28 15 0 174 0 174
-25 19 c-14 11 -48 23 -75 27 -105 14 -44 25 145 25 186 0 245 -10 154 -25
-75 -13 -79 -24 -79 -199 l0 -154 -55 -36 c-122 -82 -289 -117 -457 -97 -249
29 -394 144 -443 353 -19 83 -19 274 0 357 33 138 119 247 238 301 54 25 85
33 207 54 45 8 243 -4 310 -20z m-8822 -486 c119 -263 219 -478 223 -478 3 0
103 216 223 480 l218 480 126 0 c127 0 142 -7 65 -29 -24 -6 -48 -21 -53 -32
-14 -25 5 -871 20 -899 10 -18 59 -40 91 -40 11 0 19 -4 19 -10 0 -6 -65 -10
-175 -10 -165 0 -222 10 -137 24 78 12 75 -6 67 453 -4 224 -10 416 -14 425
-4 10 -81 -148 -215 -443 l-208 -459 -67 0 -66 0 -214 470 c-117 259 -215 469
-216 468 -1 -2 -6 -200 -10 -440 l-7 -437 34 -21 c18 -11 43 -20 56 -20 12 0
22 -4 22 -10 0 -6 -52 -10 -135 -10 -130 0 -176 11 -97 24 21 3 48 16 59 28
20 22 21 38 31 453 11 488 13 471 -66 489 -76 18 -44 27 83 24 l126 -3 217
-477z m2683 2 c137 -261 257 -481 267 -488 9 -7 36 -18 60 -25 23 -6 42 -15
42 -19 0 -4 -81 -8 -180 -8 -169 0 -232 10 -139 23 23 3 49 13 58 22 15 14 11
24 -41 123 l-57 107 -309 3 -309 2 -52 -107 c-38 -77 -50 -112 -43 -123 5 -8
32 -19 60 -24 29 -5 52 -13 52 -18 0 -4 -63 -8 -140 -8 -134 0 -179 10 -105
24 19 4 46 17 60 29 15 13 107 196 230 455 l205 432 -20 41 -21 40 66 -3 66
-3 250 -475z m1779 78 c189 -222 354 -414 367 -428 l23 -25 0 393 c0 378 -1
393 -20 412 -11 11 -38 23 -60 26 -81 13 -36 24 101 24 91 0 138 -4 134 -10
-3 -5 -16 -10 -28 -10 -12 0 -37 -9 -54 -20 l-33 -20 0 -480 0 -480 -23 0
c-18 0 -105 96 -392 434 -204 239 -373 435 -377 435 -5 1 -8 -176 -8 -393 0
-383 1 -394 21 -420 13 -17 34 -28 60 -32 79 -13 35 -24 -96 -24 -129 0 -175
11 -99 23 20 3 45 14 55 23 18 16 19 40 19 464 0 424 -1 448 -19 464 -10 9
-35 20 -55 23 -66 10 -37 23 53 23 l89 0 342 -402z m2290 -65 c135 -258 257
-480 271 -495 17 -17 43 -30 68 -34 90 -14 32 -24 -145 -24 -173 0 -230 10
-133 23 78 10 79 21 14 146 l-58 111 -309 0 -309 0 -50 -106 c-28 -58 -48
-112 -45 -120 7 -18 48 -34 87 -34 16 0 29 -4 29 -10 0 -6 -53 -10 -140 -10
-133 0 -179 10 -107 24 17 4 42 14 55 24 14 11 103 185 231 454 l208 435 -18
34 c-10 19 -18 37 -19 42 0 4 28 7 63 7 l62 0 245 -467z m4180 382 c0 -50 -4
-85 -10 -85 -5 0 -10 7 -10 16 0 38 -34 87 -74 105 -36 16 -69 19 -293 19
l-253 0 0 -220 0 -220 220 0 221 0 24 25 c14 13 25 33 25 45 0 11 7 20 15 20
12 0 15 -19 15 -110 0 -91 -3 -110 -15 -110 -8 0 -15 9 -15 19 0 11 -11 33
-24 48 l-24 28 -221 3 -221 3 0 -245 0 -246 260 0 c276 0 304 4 344 48 10 12
21 36 25 53 4 18 12 34 19 37 9 3 12 -19 12 -82 l0 -86 -445 0 c-405 0 -514 6
-407 24 21 3 47 15 58 27 18 20 19 41 19 459 0 418 -1 439 -19 459 -11 12 -37
24 -58 27 -107 18 1 24 397 24 l435 0 0 -85z m1449 -395 c119 -261 220 -475
224 -475 5 0 105 215 224 478 l217 477 123 0 c121 0 161 -11 83 -24 -22 -3
-50 -16 -61 -27 -19 -19 -20 -28 -15 -162 3 -78 9 -276 12 -441 7 -336 6 -330
84 -342 87 -14 31 -24 -135 -24 -166 0 -222 10 -136 24 60 9 84 45 77 116 -3
30 -8 218 -12 418 -4 200 -10 360 -15 355 -4 -4 -100 -211 -213 -458 l-204
-450 -69 -3 -68 -2 -210 466 -210 465 -6 -53 c-4 -29 -9 -223 -13 -431 -6
-367 -5 -378 14 -397 11 -11 38 -23 60 -26 81 -13 36 -24 -100 -24 -136 0
-181 11 -100 24 76 12 77 14 84 282 3 132 9 330 12 441 6 194 5 202 -15 222
-11 11 -39 24 -61 27 -82 13 -37 25 87 22 l126 -3 216 -475z m2731 395 c0 -84
-12 -112 -25 -55 -3 16 -16 41 -27 56 -40 50 -66 54 -338 54 l-250 0 0 -220 0
-220 218 0 c240 0 255 3 267 60 4 17 13 30 21 30 11 0 14 -22 14 -110 0 -91
-3 -110 -15 -110 -8 0 -15 9 -15 19 0 11 -11 33 -24 48 l-24 28 -221 3 -221 3
0 -245 0 -246 260 0 c276 0 304 4 344 48 10 12 21 36 25 53 4 18 12 34 19 37
9 3 12 -19 12 -82 l0 -86 -445 0 c-290 0 -445 3 -445 10 0 6 10 10 23 10 12 0
37 9 55 20 l32 20 0 448 c0 426 -1 450 -19 466 -10 9 -35 20 -55 23 -104 17 6
23 399 23 l435 0 0 -85z m1510 -342 l365 -428 3 385 c3 437 4 426 -76 444 -76
17 -44 26 93 26 129 0 175 -11 99 -23 -20 -3 -45 -14 -55 -23 -18 -16 -19 -40
-19 -496 l0 -478 -24 0 c-19 0 -98 87 -396 435 -204 239 -373 435 -376 435 -2
0 -4 -180 -4 -400 0 -386 1 -401 20 -420 11 -11 38 -23 60 -26 81 -13 36 -24
-100 -24 -134 0 -181 11 -102 23 20 4 47 14 60 22 l22 16 0 450 0 449 -32 20
c-18 11 -43 20 -55 20 -12 0 -25 5 -28 10 -4 6 28 10 87 10 l94 0 364 -427z
m2380 342 c0 -90 -12 -110 -30 -47 -11 43 -41 75 -83 91 -16 6 -91 11 -168 11
l-139 0 0 -460 c0 -446 1 -461 20 -480 11 -11 38 -23 60 -26 87 -14 31 -24
-135 -24 -164 0 -222 10 -139 23 20 3 45 14 55 23 18 16 19 40 19 481 l0 463
-140 0 c-149 0 -188 -9 -224 -48 -10 -12 -21 -36 -25 -53 -4 -18 -12 -34 -19
-37 -9 -3 -12 19 -12 82 l0 86 480 0 480 0 0 -85z M7628 19135 c-5 -5 -8 -336
-8 -738 l0 -729 443 5 c473 4 539 10 735 62 332 88 531 265 588 521 24 109 16
274 -19 366 -101 276 -358 432 -807 493 -135 18 -918 35 -932 20z M10970
18465 l0 -676 523 3 c574 3 563 2 630 66 34 32 72 103 82 152 13 68 15 70 51
70 l34 0 0 -330 0 -330 -34 0 c-33 0 -46 13 -46 45 0 29 -42 126 -68 157 -14
17 -49 41 -77 54 l-50 24 -522 0 -523 0 0 -736 0 -735 758 3 c739 4 759 4 834
25 144 41 218 96 270 201 l33 67 0 1160 0 1160 -27 57 c-50 106 -143 176 -290
215 -56 15 -151 17 -820 20 l-758 4 0 -676z M9646 14674 c-75 -158 -135 -288
-133 -291 2 -2 133 -2 290 -1 l287 3 -148 282 c-81 155 -150 285 -153 288 -3
3 -68 -124 -143 -281z M13803 14840 c-33 -69 -95 -198 -138 -288 -42 -90 -75
-165 -73 -168 3 -2 133 -3 290 -2 l286 3 -130 245 c-71 135 -140 265 -153 290
l-23 45 -59 -125z"/>
</g>
</svg>
