<?xml version="1.0" standalone="no"?>
<!DOCTYPE svg PUBLIC "-//W3C//DTD SVG 20010904//EN"
 "http://www.w3.org/TR/2001/REC-SVG-20010904/DTD/svg10.dtd">
<svg version="1.0" xmlns="http://www.w3.org/2000/svg"
 width="3334.000000pt" height="3334.000000pt" viewBox="0 0 3334.000000 3334.000000"
 preserveAspectRatio="xMidYMid meet">
<metadata>
Created by potrace 1.16, written by Peter Selinger 2001-2019
</metadata>
<g transform="translate(0.000000,3334.000000) scale(0.100000,-0.100000)"
fill="#000000" stroke="none">
<path d="M0 16670 l0 -16670 16670 0 16670 0 0 16670 0 16670 -16670 0 -16670
0 0 -16670z m5470 2610 c236 -28 492 -89 693 -166 l97 -37 0 -288 0 -289 -30
0 c-28 0 -30 3 -30 38 -1 138 -94 298 -242 415 -205 162 -498 248 -843 249
-549 0 -911 -186 -1108 -570 -126 -245 -181 -531 -180 -942 0 -400 53 -664
185 -922 62 -123 123 -202 230 -303 253 -238 615 -336 1093 -294 227 19 438
73 613 156 l73 34 -3 525 -3 525 -41 38 c-22 21 -66 48 -98 60 -63 23 -207 51
-267 51 -38 0 -39 1 -39 35 l0 35 575 0 575 0 0 -34 c0 -33 0 -33 -58 -39 -89
-9 -188 -44 -229 -80 -64 -56 -63 -50 -63 -540 l0 -443 -72 -55 c-359 -267
-753 -381 -1268 -366 -263 8 -434 34 -630 98 -554 180 -873 603 -941 1248 -17
167 -7 537 19 681 96 527 363 875 811 1056 170 69 371 114 596 134 121 11 454
5 585 -10z m17330 -5 c228 -32 398 -75 607 -152 l123 -45 0 -254 0 -254 -38 0
c-37 0 -37 1 -50 52 -90 382 -546 616 -1124 577 -308 -20 -535 -101 -689 -247
-111 -104 -159 -208 -159 -346 0 -232 134 -405 429 -555 157 -79 251 -115 636
-243 588 -195 775 -285 940 -452 124 -125 170 -243 168 -426 -5 -459 -323
-743 -933 -835 -146 -22 -469 -31 -600 -16 -335 38 -688 155 -919 305 l-71 46
0 245 0 245 38 0 38 0 17 -72 c26 -114 96 -243 182 -335 154 -166 358 -271
627 -325 134 -26 415 -31 561 -10 273 40 482 129 618 264 116 115 166 245 157
409 -9 143 -76 260 -211 363 -149 113 -302 179 -792 341 -370 123 -496 170
-637 241 -298 150 -466 334 -514 564 -21 101 -14 271 15 360 105 327 477 532
1041 574 109 8 427 -3 540 -19z m-14140 -69 c652 -76 1006 -280 1095 -631 20
-79 20 -262 0 -340 -80 -309 -357 -507 -845 -603 l-138 -27 375 -610 c212
-345 393 -629 416 -653 65 -67 165 -108 330 -136 33 -6 37 -10 37 -36 l0 -30
-319 0 -319 0 -444 718 -444 717 -50 3 c-27 2 -203 1 -391 -3 l-343 -7 0 -594
c0 -395 4 -602 11 -621 29 -77 124 -125 292 -148 44 -6 47 -8 47 -36 l0 -29
-525 0 -525 0 0 29 c0 27 4 30 43 36 158 23 253 68 289 135 17 33 18 93 18
1343 0 1425 4 1332 -57 1389 -40 38 -108 66 -194 79 -101 16 -99 15 -99 50 l0
31 798 -5 c663 -3 821 -7 942 -21z m6490 -237 l0 -261 -37 7 c-21 4 -38 8 -39
8 0 1 -6 35 -12 75 -15 90 -47 154 -104 208 -54 52 -108 80 -205 105 -72 18
-117 19 -810 19 l-733 0 2 -667 3 -668 635 0 c588 0 638 1 682 18 84 33 133
104 162 240 6 23 11 27 41 27 l35 0 0 -335 0 -335 -34 0 c-33 0 -35 2 -45 52
-24 110 -64 173 -136 211 -40 22 -46 22 -692 25 l-653 3 0 -736 0 -736 768 3
c764 4 767 4 842 27 175 52 263 145 291 307 7 38 15 72 18 75 3 4 21 10 39 14
l32 7 0 -261 0 -261 -2470 0 -2470 0 0 29 c0 28 3 30 48 36 180 25 276 79 301
170 15 57 15 2564 0 2620 -23 84 -126 144 -279 162 -64 8 -65 8 -68 41 l-3 32
2445 0 2446 0 0 -261z m2101 -1034 l1104 -1294 3 1157 c1 636 0 1172 -3 1190
-16 88 -125 152 -289 170 -60 7 -61 8 -64 40 l-3 32 416 0 416 0 -3 -32 c-3
-32 -3 -32 -83 -44 -137 -20 -216 -60 -253 -127 -16 -30 -17 -122 -20 -1459
l-2 -1428 -58 0 -57 1 -1130 1323 -1130 1324 -3 -1192 c-1 -655 0 -1205 3
-1223 15 -86 118 -144 298 -168 44 -6 47 -8 47 -36 l0 -29 -410 0 -410 0 0 29
c0 27 4 30 43 36 162 24 252 66 287 134 20 40 20 50 20 1346 0 1105 -2 1310
-14 1333 -18 34 -62 75 -103 96 -41 21 -147 46 -195 46 -37 0 -38 1 -38 35 l0
35 263 0 264 0 1104 -1295z m7797 1263 c-3 -29 -7 -33 -33 -36 -116 -9 -232
-49 -272 -93 -54 -59 -53 -47 -53 -740 0 -375 4 -639 9 -637 13 4 1499 1319
1541 1362 28 30 32 40 24 54 -16 25 -72 41 -177 49 l-92 8 -3 33 -3 32 851 0
851 0 -3 -32 c-3 -31 -6 -33 -43 -35 -82 -5 -191 -25 -232 -43 -52 -23 -69
-51 -54 -89 15 -35 943 -1344 956 -1347 8 -2 463 606 918 1228 100 137 108
166 55 198 -41 25 -104 39 -208 48 l-85 7 -3 33 -3 32 450 0 451 0 0 -35 c0
-33 -2 -35 -32 -35 -67 0 -225 -40 -293 -74 -38 -19 -86 -52 -106 -73 -20 -21
-267 -347 -548 -725 l-511 -687 0 -613 c0 -695 -4 -657 82 -714 44 -29 125
-55 226 -69 38 -6 42 -9 42 -36 l0 -29 -525 0 -525 0 0 29 c0 28 3 30 48 36
167 23 262 71 291 148 7 19 11 213 11 577 l0 549 -526 743 c-290 409 -545 762
-568 786 -23 24 -70 57 -106 75 -61 30 -70 32 -180 32 -185 0 -169 11 -772
-516 -278 -244 -508 -447 -510 -450 -1 -4 317 -411 707 -905 476 -603 724
-908 753 -928 64 -45 140 -74 262 -98 109 -21 110 -22 110 -50 l0 -28 -560 0
-560 0 0 29 c0 29 2 30 58 36 217 24 273 55 235 129 -23 44 -1246 1596 -1255
1593 -4 -1 -106 -89 -228 -195 l-220 -194 0 -566 c0 -341 4 -581 10 -601 22
-77 109 -132 246 -156 47 -8 91 -15 95 -15 5 0 9 -13 9 -30 l0 -30 -530 0
-530 0 0 30 c0 17 5 30 13 30 6 1 46 7 88 14 137 25 228 82 249 156 6 22 10
507 10 1320 0 1233 -1 1287 -19 1326 -34 74 -134 127 -271 142 -64 7 -65 7
-68 40 l-3 32 531 0 531 0 -3 -32z m-8819 -4104 c41 -9 95 -23 120 -32 l46
-18 3 -97 c3 -104 -8 -124 -28 -53 -25 91 -142 167 -280 184 -156 19 -281 -13
-368 -93 -101 -91 -137 -214 -130 -433 6 -160 26 -238 85 -322 76 -107 181
-154 348 -154 103 0 178 13 253 45 l42 18 0 165 c0 90 -3 172 -6 181 -8 21
-49 41 -101 50 -93 15 -35 25 147 25 105 0 190 -4 190 -9 0 -5 -20 -14 -44
-20 -71 -17 -76 -32 -76 -203 l0 -147 -33 -25 c-190 -145 -550 -153 -748 -16
-68 47 -132 138 -161 233 -33 104 -33 310 -1 413 73 233 270 344 578 328 50
-3 123 -12 164 -20z m-8814 -489 l220 -485 18 37 c10 21 109 238 220 483 l203
445 122 3 c117 2 161 -8 89 -22 -18 -3 -43 -14 -56 -23 l-24 -16 7 -436 c8
-493 6 -478 84 -495 23 -6 42 -13 42 -18 0 -4 -79 -8 -176 -8 -114 0 -173 3
-169 10 3 6 15 10 26 10 30 0 77 27 84 48 3 11 1 185 -5 388 -5 203 -10 391
-10 418 0 28 -4 46 -8 40 -5 -5 -101 -213 -213 -462 l-204 -452 -69 2 -69 3
-212 467 -212 468 -7 -228 c-3 -125 -7 -323 -8 -440 -3 -240 -5 -236 74 -249
80 -12 32 -23 -103 -23 -134 0 -174 10 -91 24 76 12 73 -6 84 477 7 309 7 438
-1 455 -7 16 -25 28 -56 36 -25 7 -45 16 -45 20 0 4 55 8 123 8 l122 -1 220
-484z m2679 10 c148 -284 258 -483 273 -495 14 -11 40 -22 59 -26 79 -15 22
-24 -146 -24 -99 0 -180 4 -180 9 0 4 21 11 46 14 82 9 84 19 19 141 l-57 106
-312 0 -312 0 -48 -99 c-29 -58 -46 -105 -43 -115 7 -19 47 -36 82 -36 13 0
27 -4 30 -10 4 -6 -43 -10 -134 -10 -132 0 -179 10 -111 23 64 13 71 25 285
474 221 463 210 433 180 506 -6 15 0 17 56 17 l64 -1 249 -474z m1801 51 l360
-423 3 391 c2 386 2 391 -18 408 -12 10 -37 20 -56 24 -72 13 -28 24 101 24
131 0 175 -11 96 -24 -26 -4 -47 -15 -60 -32 -21 -26 -21 -36 -21 -495 l0
-469 -22 1 c-20 0 -255 267 -740 842 l-27 32 -1 -408 0 -407 33 -20 c17 -11
42 -20 54 -20 12 0 25 -4 28 -10 4 -6 -43 -10 -134 -10 -87 0 -141 4 -141 10
0 6 11 10 25 10 33 0 81 25 89 45 3 9 6 212 6 451 0 420 -1 435 -20 454 -11
11 -38 23 -60 26 -71 11 -43 24 53 23 l92 0 360 -423z m2267 -36 c131 -250
246 -465 254 -478 19 -29 72 -62 102 -62 12 0 22 -4 22 -10 0 -6 -67 -10 -180
-10 -113 0 -180 4 -180 10 0 6 13 10 29 10 43 0 81 17 81 36 0 9 -24 61 -52
116 l-53 98 -314 -2 -314 -3 -47 -102 c-56 -118 -53 -132 23 -140 94 -11 44
-23 -94 -23 -130 0 -170 9 -100 23 61 13 83 49 291 487 l201 425 -20 43 -21
43 66 -3 67 -3 239 -455z m4188 374 c0 -62 -3 -85 -12 -82 -7 3 -16 20 -21 39
-23 89 -60 99 -371 99 l-246 0 0 -220 0 -220 221 0 c127 0 228 4 239 10 10 5
24 26 30 45 6 19 18 35 26 35 11 0 14 -22 14 -110 0 -88 -3 -110 -14 -110 -8
0 -20 16 -26 35 -6 19 -20 40 -30 45 -11 6 -112 10 -239 10 l-221 0 0 -240 0
-241 279 3 c266 3 281 4 308 24 15 12 35 41 44 65 27 72 39 61 39 -35 l0 -86
-450 0 c-293 0 -450 3 -450 10 0 6 11 10 25 10 33 0 81 25 89 45 3 9 6 212 6
451 0 420 -1 435 -20 454 -11 11 -38 23 -60 26 -109 18 -2 24 400 24 l440 0 0
-86z m1444 -394 c120 -264 222 -480 225 -480 3 0 103 215 222 478 l217 477
121 3 c117 3 160 -8 87 -22 -19 -4 -44 -15 -57 -24 l-22 -18 10 -442 c10 -495
7 -476 85 -488 89 -15 38 -24 -126 -24 -166 0 -223 10 -138 24 76 12 75 2 66
383 -3 186 -9 378 -13 427 l-6 89 -210 -462 -209 -462 -68 3 -69 3 -195 430
c-107 237 -203 446 -212 465 -16 34 -17 31 -23 -170 -3 -113 -7 -309 -8 -436
-1 -259 -1 -259 73 -271 76 -12 30 -23 -99 -23 -131 0 -175 11 -96 24 25 4 47
15 59 31 18 23 20 50 27 462 l7 437 -22 18 c-12 9 -37 20 -56 24 -70 13 -30
24 89 24 l122 0 219 -480z m2736 395 c0 -69 -3 -85 -15 -85 -8 0 -15 9 -15 20
0 39 -30 81 -73 101 -38 17 -68 19 -294 19 l-253 0 0 -220 0 -220 223 0 c219
0 224 0 244 23 11 12 24 32 28 45 15 50 25 16 25 -88 0 -104 -10 -138 -25 -87
-4 12 -17 32 -28 45 -20 22 -25 22 -244 22 l-223 0 0 -240 0 -241 278 3 c270
3 278 4 309 26 18 13 37 38 43 60 22 67 30 59 30 -31 l0 -87 -445 0 c-290 0
-445 3 -445 10 0 6 11 10 25 10 33 0 81 25 89 45 3 9 6 212 6 450 l0 434 -22
21 c-12 11 -39 23 -60 26 -107 18 2 24 402 24 l440 0 0 -85z m1504 -342 l361
-423 3 393 c2 390 2 392 -19 410 -12 9 -39 20 -60 23 -80 13 -34 24 101 24
136 0 181 -11 100 -24 -22 -3 -49 -15 -60 -26 -19 -19 -20 -34 -20 -495 l0
-475 -22 0 c-18 0 -111 103 -393 434 l-370 434 -3 -401 c-3 -449 -5 -431 70
-443 79 -13 34 -24 -97 -24 -132 0 -175 11 -95 24 22 3 49 15 60 26 19 19 20
34 20 454 0 423 0 434 -21 460 -13 17 -34 28 -60 32 -72 12 -40 25 53 22 l92
-3 360 -422z m2386 342 c0 -69 -3 -85 -15 -85 -8 0 -15 9 -15 20 0 39 -30 81
-73 101 -35 15 -66 19 -185 19 l-143 0 3 -459 c3 -436 4 -460 22 -480 11 -12
37 -24 58 -27 85 -14 28 -24 -137 -24 -110 0 -175 4 -175 10 0 6 11 10 25 10
33 0 81 25 89 45 3 9 6 221 6 471 l0 454 -139 0 c-77 0 -152 -5 -168 -11 -42
-16 -82 -58 -89 -96 -11 -61 -24 -34 -24 52 l0 85 480 0 480 0 0 -85z M7620
18399 l0 -731 448 5 c470 4 520 8 715 58 323 82 526 253 593 499 24 88 24 262
0 349 -30 109 -72 179 -160 267 -147 146 -357 229 -676 269 -93 11 -226 15
-522 15 l-398 0 0 -731z M10962 18463 l3 -668 490 -3 c300 -1 511 2 544 8 107
20 169 84 199 208 l17 72 38 0 37 0 0 -336 0 -335 -37 3 c-36 3 -37 4 -50 60
-16 73 -42 125 -85 165 -65 63 -66 63 -639 63 l-519 0 0 -736 0 -735 768 4
c688 3 773 5 824 20 99 30 146 55 199 104 62 58 94 119 109 204 7 45 10 400 8
1164 l-3 1100 -23 57 c-32 78 -99 150 -175 188 -121 59 -129 60 -955 60 l-752
0 2 -667z M9721 14840 c-32 -69 -95 -201 -140 -294 -45 -93 -81 -171 -81 -173
0 -1 131 -3 290 -3 225 0 290 3 290 13 0 6 -68 140 -150 297 l-149 285 -60
-125z M13723 14682 c-72 -152 -135 -285 -138 -294 -7 -17 11 -18 284 -18 187
0 291 4 291 10 0 10 -286 559 -299 572 -3 4 -65 -118 -138 -270z"/>
</g>
</svg>
