<svg xmlns="http://www.w3.org/2000/svg" width="1200" height="630">
  <defs>
    <linearGradient id="g" x1="0" y1="0" x2="1" y2="1">
      <stop offset="0" stop-color="#0b0b0b"/>
      <stop offset="1" stop-color="#111113"/>
    </linearGradient>
  </defs>
  <rect width="1200" height="630" fill="url(#g)"/>
  <g transform="translate(80,80)">
    <rect x="0" y="0" rx="16" width="120" height="120" fill="#0B0B0B" stroke="#2AB99F" stroke-width="2"/>
    <path d="M18 63c0-25 20-45 45-45 15 0 28 8 36 19a5 5 0 0 1-8 6 34 34 0 0 0-28-15c-19 0-35 16-35 35s16 35 35 35c12 0 23-6 29-16h-22a5 5 0 1 1 0-10h32c3 0 5 2 5 5 0 24-21 42-44 42-25 0-45-20-45-45z" fill="#2AB99F"/>
  </g>
  <text x="240" y="120" fill="#fafafa" font-family="ui-sans-serif, system-ui, -apple-system, Segoe UI, Roboto, Helvetica" font-size="56" font-weight="700">Green Sky</text>
  <text x="240" y="178" fill="#a1a1aa" font-family="ui-sans-serif, system-ui" font-size="28">Secure, modern, lender-ready commerce</text>
</svg>
